<svg xmlns="http://www.w3.org/2000/svg" xmlns:xlink="http://www.w3.org/1999/xlink" width="313.765625" height="31.375" style="width:313.765625px;height:31.375px;font-family:Asana-Math, Asana;background:transparent;"><g><g><g><g transform="matrix(1,0,0,1,2,21.6875)"><path transform="matrix(0.017,0,0,-0.017,0,0)" d="M746 705C747 702 747 698 747 695C747 651 669 645 632 645C525 645 413 671 306 671C282 671 258 670 235 666C151 652 24 571 24 469C24 423 106 337 147 337C151 337 154 338 158 339C117 368 95 420 95 477C95 580 166 621 267 621C300 621 332 619 366 616C292 566 264 486 265 391C247 391 229 391 210 394C203 378 194 363 186 348C206 355 229 356 252 356L267 356C269 332 270 300 270 265C270 132 248 -47 128 -47C118 -47 105 -44 96 -38C104 -59 127 -66 145 -66C171 -66 197 -63 220 -53C388 24 358 191 368 360L582 360C594 360 610 399 615 409L611 413C587 393 496 393 459 393L365 393C365 405 364 425 364 448C364 515 370 610 413 610C481 610 552 592 620 592C663 592 762 625 762 676C762 689 756 699 746 705Z" stroke="rgb(29,245,50)" stroke-opacity="1" stroke-width="8" fill="rgb(29,245,50)" fill-opacity="1"></path></g></g><g><g transform="matrix(1,0,0,1,20.265625,21.6875)"><path transform="matrix(0.017,0,0,-0.017,0,0)" d="M509 8L509 61L309 61C215 61 122 139 109 244L492 244L492 297L109 297C121 397 204 480 309 480L509 480L509 533L314 533C167 533 55 411 55 271C55 131 167 8 314 8Z" stroke="rgb(29,245,50)" stroke-opacity="1" stroke-width="8" fill="rgb(29,245,50)" fill-opacity="1"></path></g></g><g><g transform="matrix(1,0,0,1,34.9375,21.6875)"><path transform="matrix(0.017,0,0,-0.017,0,0)" d="M332 534C332 598 346 656 408 656C452 656 495 640 507 590C508 585 509 579 509 574C509 560 504 547 496 537L499 526C520 534 583 567 583 595C583 663 468 689 425 689C255 689 225 580 225 451C225 379 234 300 234 232C234 192 218 75 172 75C144 75 115 86 87 86C50 86 18 13 11 -17L18 -24C32 -10 53 6 76 6C245 6 382 -86 551 -86C653 -86 677 -20 685 67L678 77C647 30 591 0 527 0C418 0 345 33 234 60C308 145 344 240 344 358C344 420 332 464 332 534Z" stroke="rgb(29,245,50)" stroke-opacity="1" stroke-width="8" fill="rgb(29,245,50)" fill-opacity="1"></path></g></g><g><svg x="48.1875" overflow="visible" y="3.6875" height="24" width="8.5"><path d=" M 6.27 1.70 c 0.00 -0.06 -0.04 -0.08 -0.08 -0.08 c -0.03 0.00 -0.06 0.01 -0.08 0.02 c -2.55 1.34 -4.65 3.73 -4.65 9.40 v 0.60 h 1.53 v -0.60 c 0.00 -3.23 0.64 -7.03 3.31 -9.06 c 0.12 -0.09 0.13 -0.19 0.13 -0.28 z   M 1.44 11.64 v 0.72 h 1.53 v -0.72 z" style="fill:rgb(29,245,50);fill-opacity:1;stroke-width:1px;stroke:none;stroke-opacity:1;"></path><path d=" M 6.27 22.30 c 0.00 0.06 -0.04 0.08 -0.08 0.08 c -0.03 0.00 -0.06 -0.01 -0.08 -0.02 c -2.55 -1.34 -4.65 -3.73 -4.65 -9.40 v -0.60 h 1.53 v 0.60 c 0.00 3.23 0.64 7.03 3.31 9.06 c 0.12 0.09 0.13 0.19 0.13 0.28 z" style="fill:rgb(29,245,50);fill-opacity:1;stroke-width:1px;stroke:none;stroke-opacity:1;"></path></svg></g><g><g transform="matrix(1,0,0,1,55,21.6875)"><path transform="matrix(0.017,0,0,-0.017,0,0)" d="M402 371C393 371 384 371 375 372L369 360L646 -3C669 -2 691 0 714 0C737 0 760 -2 786 -3L786 27C762 29 740 34 725 53L498 349C595 368 693 433 693 542C693 612 653 692 502 692L22 692L22 662L66 659C107 656 117 648 117 569L117 120C117 41 107 31 66 29L22 27L22 -3C22 -3 77 0 236 0C282 0 380 -1 432 -3L432 27L384 29C340 31 333 41 333 120L333 642C361 649 389 654 435 654C513 654 593 624 593 516C593 458 552 371 402 371ZM195 31C168 31 163 46 163 120L163 569C163 643 169 655 196 658C234 654 238 647 238 569L238 120C238 45 233 31 195 31Z" stroke="rgb(29,245,50)" stroke-opacity="1" stroke-width="8" fill="rgb(29,245,50)" fill-opacity="1"></path></g></g><g><g><g><g><g transform="matrix(1,0,0,1,69.296875,14.978125)"><path transform="matrix(0.0119,0,0,-0.0119,0,0)" d="M16 23L16 -3C203 -3 203 0 239 0C275 0 275 -3 468 -3L468 82C353 77 307 81 122 77L304 270C401 373 431 428 431 503C431 618 353 689 226 689C154 689 105 669 56 619L39 483L68 483L81 529C97 587 133 612 200 612C286 612 341 558 341 473C341 398 299 324 186 204Z" stroke="rgb(29,245,50)" stroke-opacity="1" stroke-width="8" fill="rgb(29,245,50)" fill-opacity="1"></path></g></g></g></g></g><g><svg x="74.578125" overflow="visible" y="3.6875" height="24" width="8.5"><path d=" M 1.75 1.70 c 0.00 -0.06 0.04 -0.08 0.08 -0.08 c 0.03 0.00 0.06 0.01 0.08 0.02 c 2.55 1.34 4.65 3.73 4.65 9.40 v 0.60 h -1.53 v -0.60 c 0.00 -3.23 -0.64 -7.03 -3.31 -9.06 c -0.12 -0.09 -0.13 -0.19 -0.13 -0.28 z  M 6.58 11.64 v 0.72 h -1.53 v -0.72 z" style="fill:rgb(29,245,50);fill-opacity:1;stroke-width:1px;stroke:none;stroke-opacity:1;"></path><path d=" M 1.75 22.30 c 0.00 0.06 0.04 0.08 0.08 0.08 c 0.03 0.00 0.06 -0.01 0.08 -0.02 c 2.55 -1.34 4.65 -3.73 4.65 -9.40 v -0.60 h -1.53 v 0.60 c 0.00 3.23 -0.64 7.03 -3.31 9.06 c -0.12 0.09 -0.13 0.19 -0.13 0.28 z" style="fill:rgb(29,245,50);fill-opacity:1;stroke-width:1px;stroke:none;stroke-opacity:1;"></path></svg></g><g><g transform="matrix(1,0,0,1,84.265625,21.6875)"><path transform="matrix(0.017,0,0,-0.017,0,0)" d="M204 123C177 114 159 108 106 93C99 17 74 -48 16 -144L30 -155L71 -136C152 -31 190 32 218 109Z" stroke="rgb(29,245,50)" stroke-opacity="1" stroke-width="8" fill="rgb(29,245,50)" fill-opacity="1"></path></g></g><g><g transform="matrix(1,0,0,1,91.890625,21.6875)"><path transform="matrix(0.017,0,0,-0.017,0,0)" d="" stroke="rgb(29,245,50)" stroke-opacity="1" stroke-width="8" fill="rgb(29,245,50)" fill-opacity="1"></path></g></g><g><g transform="matrix(1,0,0,1,96.125,21.6875)"><path transform="matrix(0.017,0,0,-0.017,0,0)" d="M746 705C747 702 747 698 747 695C747 651 669 645 632 645C525 645 413 671 306 671C282 671 258 670 235 666C151 652 24 571 24 469C24 423 106 337 147 337C151 337 154 338 158 339C117 368 95 420 95 477C95 580 166 621 267 621C300 621 332 619 366 616C292 566 264 486 265 391C247 391 229 391 210 394C203 378 194 363 186 348C206 355 229 356 252 356L267 356C269 332 270 300 270 265C270 132 248 -47 128 -47C118 -47 105 -44 96 -38C104 -59 127 -66 145 -66C171 -66 197 -63 220 -53C388 24 358 191 368 360L582 360C594 360 610 399 615 409L611 413C587 393 496 393 459 393L365 393C365 405 364 425 364 448C364 515 370 610 413 610C481 610 552 592 620 592C663 592 762 625 762 676C762 689 756 699 746 705Z" stroke="rgb(29,245,50)" stroke-opacity="1" stroke-width="8" fill="rgb(29,245,50)" fill-opacity="1"></path></g></g><g><g transform="matrix(1,0,0,1,109.296875,21.6875)"><path transform="matrix(0.017,0,0,-0.017,0,0)" d="M146 266C146 526 243 632 301 700L282 726C225 675 60 542 60 266C60 159 85 58 133 -32C168 -99 200 -138 282 -215L301 -194C255 -137 146 -15 146 266Z" stroke="rgb(29,245,50)" stroke-opacity="1" stroke-width="8" fill="rgb(29,245,50)" fill-opacity="1"></path></g></g><g><g transform="matrix(1,0,0,1,114.953125,21.6875)"><path transform="matrix(0.017,0,0,-0.017,0,0)" d="M9 1C24 -7 40 -11 52 -11C85 -11 124 18 155 65L231 182L242 113C255 28 278 -11 314 -11C336 -11 368 6 400 35L449 79L440 98C404 68 379 53 363 53C348 53 335 63 325 83C316 102 305 139 300 168L282 269L317 318C364 383 391 406 422 406C438 406 450 398 455 383L469 387L484 472C472 479 463 482 454 482C414 482 374 446 312 354L275 299L269 347C257 446 230 482 171 482C145 482 123 474 114 461L56 378L73 368C103 402 123 416 142 416C175 416 197 375 214 277L225 215L185 153C142 86 108 54 80 54C65 54 54 58 52 63L41 91L21 88C21 53 13 27 9 1Z" stroke="rgb(29,245,50)" stroke-opacity="1" stroke-width="8" fill="rgb(29,245,50)" fill-opacity="1"></path></g></g><g><g transform="matrix(1,0,0,1,123.4375,21.6875)"><path transform="matrix(0.017,0,0,-0.017,0,0)" d="M204 123C177 114 159 108 106 93C99 17 74 -48 16 -144L30 -155L71 -136C152 -31 190 32 218 109Z" stroke="rgb(29,245,50)" stroke-opacity="1" stroke-width="8" fill="rgb(29,245,50)" fill-opacity="1"></path></g></g><g><g transform="matrix(1,0,0,1,131.0625,21.6875)"><path transform="matrix(0.017,0,0,-0.017,0,0)" d="M-7 -180C-8 -187 -8 -193 -8 -198C-8 -241 29 -276 74 -276C180 -276 290 -152 349 33L490 473L479 482C450 471 427 465 405 463L370 331C358 284 323 211 290 162C255 111 206 67 184 67C172 67 163 90 164 115L180 322C182 353 184 391 184 419C184 464 177 482 160 482C147 482 133 475 85 442L3 386L14 368L64 398C69 401 80 410 89 410C103 410 111 391 111 358C111 357 111 351 110 343L93 100L92 60C92 18 110 -11 135 -11C172 -11 256 74 331 187L282 16C231 -161 181 -234 111 -234C76 -234 49 -207 49 -172C49 -167 50 -159 51 -150L41 -146Z" stroke="rgb(29,245,50)" stroke-opacity="1" stroke-width="8" fill="rgb(29,245,50)" fill-opacity="1"></path></g></g><g><g transform="matrix(1,0,0,1,139.546875,21.6875)"><path transform="matrix(0.017,0,0,-0.017,0,0)" d="M51 726L32 700C87 636 187 526 187 266C187 -10 83 -131 32 -194L51 -215C104 -165 273 -23 273 265C273 542 108 675 51 726Z" stroke="rgb(29,245,50)" stroke-opacity="1" stroke-width="8" fill="rgb(29,245,50)" fill-opacity="1"></path></g></g><g><g transform="matrix(1,0,0,1,145.203125,21.6875)"><path transform="matrix(0.017,0,0,-0.017,0,0)" d="" stroke="rgb(29,245,50)" stroke-opacity="1" stroke-width="8" fill="rgb(29,245,50)" fill-opacity="1"></path></g></g><g><g transform="matrix(1,0,0,1,154.53125,21.6875)"><path transform="matrix(0.017,0,0,-0.017,0,0)" d="M604 347L604 406L65 406L65 347ZM604 134L604 193L65 193L65 134Z" stroke="rgb(29,245,50)" stroke-opacity="1" stroke-width="8" fill="rgb(29,245,50)" fill-opacity="1"></path></g></g><g><g transform="matrix(1,0,0,1,170.984375,21.6875)"><path transform="matrix(0.017,0,0,-0.017,0,0)" d="" stroke="rgb(29,245,50)" stroke-opacity="1" stroke-width="8" fill="rgb(29,245,50)" fill-opacity="1"></path></g></g><g><g transform="matrix(1,0,0,1,175.21875,21.6875)"><path transform="matrix(0.017,0,0,-0.017,0,0)" d="M146 266C146 526 243 632 301 700L282 726C225 675 60 542 60 266C60 159 85 58 133 -32C168 -99 200 -138 282 -215L301 -194C255 -137 146 -15 146 266Z" stroke="rgb(29,245,50)" stroke-opacity="1" stroke-width="8" fill="rgb(29,245,50)" fill-opacity="1"></path></g></g><g><g transform="matrix(1,0,0,1,180.875,21.6875)"><path transform="matrix(0.017,0,0,-0.017,0,0)" d="M409 603L47 -1L157 -1L497 659L497 689L44 689L44 477L74 477L81 533C89 595 96 603 142 603ZM770 204L741 77C737 60 735 42 735 26C735 4 744 -9 759 -9C782 -9 823 17 905 85L898 106C874 86 845 59 823 59C814 59 808 68 808 82C808 87 808 90 809 93L901 472L891 481L858 463C817 478 800 482 773 482C745 482 725 477 698 464C636 433 603 403 578 354C534 265 503 145 503 67C503 23 518 -11 537 -11C574 -11 654 41 770 204ZM818 414C796 305 777 253 743 201C686 117 625 59 593 59C581 59 575 72 575 99C575 163 603 280 638 360C662 415 685 433 733 433C756 433 774 429 818 414ZM951 1C966 -7 982 -11 994 -11C1027 -11 1066 18 1097 65L1173 182L1184 113C1197 28 1220 -11 1256 -11C1278 -11 1310 6 1342 35L1391 79L1382 98C1346 68 1321 53 1305 53C1290 53 1277 63 1267 83C1258 102 1247 139 1242 168L1224 269L1259 318C1306 383 1333 406 1364 406C1380 406 1392 398 1397 383L1411 387L1426 472C1414 479 1405 482 1396 482C1356 482 1316 446 1254 354L1217 299L1211 347C1199 446 1172 482 1113 482C1087 482 1065 474 1056 461L998 378L1015 368C1045 402 1065 416 1084 416C1117 416 1139 375 1156 277L1167 215L1127 153C1084 86 1050 54 1022 54C1007 54 996 58 994 63L983 91L963 88C963 53 955 27 951 1Z" stroke="rgb(29,245,50)" stroke-opacity="1" stroke-width="8" fill="rgb(29,245,50)" fill-opacity="1"></path></g></g><g><g transform="matrix(1,0,0,1,208.765625,21.6875)"><path transform="matrix(0.017,0,0,-0.017,0,0)" d="M555 243L555 299L51 299L51 243Z" stroke="rgb(29,245,50)" stroke-opacity="1" stroke-width="8" fill="rgb(29,245,50)" fill-opacity="1"></path></g></g><g><g transform="matrix(1,0,0,1,222.453125,21.6875)"><path transform="matrix(0.017,0,0,-0.017,0,0)" d="M-7 -180C-8 -187 -8 -193 -8 -198C-8 -241 29 -276 74 -276C180 -276 290 -152 349 33L490 473L479 482C450 471 427 465 405 463L370 331C358 284 323 211 290 162C255 111 206 67 184 67C172 67 163 90 164 115L180 322C182 353 184 391 184 419C184 464 177 482 160 482C147 482 133 475 85 442L3 386L14 368L64 398C69 401 80 410 89 410C103 410 111 391 111 358C111 357 111 351 110 343L93 100L92 60C92 18 110 -11 135 -11C172 -11 256 74 331 187L282 16C231 -161 181 -234 111 -234C76 -234 49 -207 49 -172C49 -167 50 -159 51 -150L41 -146Z" stroke="rgb(29,245,50)" stroke-opacity="1" stroke-width="8" fill="rgb(29,245,50)" fill-opacity="1"></path></g></g><g><g transform="matrix(1,0,0,1,230.9375,21.6875)"><path transform="matrix(0.017,0,0,-0.017,0,0)" d="M204 123C177 114 159 108 106 93C99 17 74 -48 16 -144L30 -155L71 -136C152 -31 190 32 218 109Z" stroke="rgb(29,245,50)" stroke-opacity="1" stroke-width="8" fill="rgb(29,245,50)" fill-opacity="1"></path></g></g><g><g transform="matrix(1,0,0,1,238.5625,21.6875)"><path transform="matrix(0.017,0,0,-0.017,0,0)" d="M16 23L16 -3C203 -3 203 0 239 0C275 0 275 -3 468 -3L468 82C353 77 307 81 122 77L304 270C401 373 431 428 431 503C431 618 353 689 226 689C154 689 105 669 56 619L39 483L68 483L81 529C97 587 133 612 200 612C286 612 341 558 341 473C341 398 299 324 186 204ZM508 1C523 -7 539 -11 551 -11C584 -11 623 18 654 65L730 182L741 113C754 28 777 -11 813 -11C835 -11 867 6 899 35L948 79L939 98C903 68 878 53 862 53C847 53 834 63 824 83C815 102 804 139 799 168L781 269L816 318C863 383 890 406 921 406C937 406 949 398 954 383L968 387L983 472C971 479 962 482 953 482C913 482 873 446 811 354L774 299L768 347C756 446 729 482 670 482C644 482 622 474 613 461L555 378L572 368C602 402 622 416 641 416C674 416 696 375 713 277L724 215L684 153C641 86 607 54 579 54C564 54 553 58 551 63L540 91L520 88C520 53 512 27 508 1Z" stroke="rgb(29,245,50)" stroke-opacity="1" stroke-width="8" fill="rgb(29,245,50)" fill-opacity="1"></path></g></g><g><g transform="matrix(1,0,0,1,263.15625,21.6875)"><path transform="matrix(0.017,0,0,-0.017,0,0)" d="M604 241L604 300L364 300L364 538L305 538L305 300L65 300L65 241L305 241L305 0L364 0L364 241Z" stroke="rgb(29,245,50)" stroke-opacity="1" stroke-width="8" fill="rgb(29,245,50)" fill-opacity="1"></path></g></g><g><g transform="matrix(1,0,0,1,277.90625,21.6875)"><path transform="matrix(0.017,0,0,-0.017,0,0)" d="M235 722L223 733C171 707 135 698 63 691L59 670L107 670C131 670 141 663 141 646C141 639 140 628 139 622L38 71C37 68 37 64 37 61C37 22 85 -11 140 -11C177 -11 228 8 271 39C367 107 433 244 433 376C433 414 424 453 412 468C405 477 392 482 377 482C353 482 323 474 295 460C244 433 211 403 149 324ZM322 424C348 424 361 401 361 352C361 288 340 202 310 137C277 68 237 36 183 36C137 36 112 59 112 101C112 135 127 276 208 361C241 395 293 424 322 424ZM455 -180C454 -187 454 -193 454 -198C454 -241 491 -276 536 -276C642 -276 752 -152 811 33L952 473L941 482C912 471 889 465 867 463L832 331C820 284 785 211 752 162C717 111 668 67 646 67C634 67 625 90 626 115L642 322C644 353 646 391 646 419C646 464 639 482 622 482C609 482 595 475 547 442L465 386L476 368L526 398C531 401 542 410 551 410C565 410 573 391 573 358C573 357 573 351 572 343L555 100L554 60C554 18 572 -11 597 -11C634 -11 718 74 793 187L744 16C693 -161 643 -234 573 -234C538 -234 511 -207 511 -172C511 -167 512 -159 513 -150L503 -146Z" stroke="rgb(29,245,50)" stroke-opacity="1" stroke-width="8" fill="rgb(29,245,50)" fill-opacity="1"></path></g></g><g><g transform="matrix(1,0,0,1,294.25,21.6875)"><path transform="matrix(0.017,0,0,-0.017,0,0)" d="M51 726L32 700C87 636 187 526 187 266C187 -10 83 -131 32 -194L51 -215C104 -165 273 -23 273 265C273 542 108 675 51 726Z" stroke="rgb(29,245,50)" stroke-opacity="1" stroke-width="8" fill="rgb(29,245,50)" fill-opacity="1"></path></g></g><g><g transform="matrix(1,0,0,1,299.90625,21.6875)"><path transform="matrix(0.017,0,0,-0.017,0,0)" d="M204 125C177 116 159 110 106 95C99 19 74 -46 16 -142L30 -153L71 -134C152 -29 190 34 218 111ZM150 456C120 456 93 428 93 398C93 368 120 340 149 340C181 340 209 367 209 397C209 428 181 456 150 456Z" stroke="rgb(29,245,50)" stroke-opacity="1" stroke-width="8" fill="rgb(29,245,50)" fill-opacity="1"></path></g></g><g><g transform="matrix(1,0,0,1,307.53125,21.6875)"><path transform="matrix(0.017,0,0,-0.017,0,0)" d="" stroke="rgb(29,245,50)" stroke-opacity="1" stroke-width="8" fill="rgb(29,245,50)" fill-opacity="1"></path></g></g></g></g></svg>