<svg xmlns="http://www.w3.org/2000/svg" xmlns:xlink="http://www.w3.org/1999/xlink" width="16.21875" height="24.390625" style="width:16.21875px;height:24.390625px;font-family:Asana-Math, Asana;background:transparent;"><g><g><g><g transform="matrix(1,0,0,1,2,19)"><path transform="matrix(0.017,0,0,-0.017,0,0)" d="M334 245C359 279 409 283 455 283C477 283 501 281 524 278C531 200 397 84 320 84C243 84 176 157 156 228C149 251 146 276 145 302C140 454 227 640 374 640C446 640 540 591 543 498C544 478 538 459 520 450C526 447 531 446 537 446C581 446 614 497 612 543C612 550 611 557 609 563C588 636 469 679 408 679C204 679 32 517 39 314C40 286 45 257 53 227C86 109 167 15 296 15C395 15 485 104 534 171C534 168 535 164 535 161C539 34 489 -119 344 -119C258 -119 167 -64 138 26L131 29C122 7 111 -41 112 -76C112 -84 112 -90 114 -96C129 -148 320 -167 360 -167C561 -167 610 56 612 221C612 242 611 265 620 282C634 310 674 317 677 353L670 356C654 343 632 339 609 339C560 339 511 346 462 346C415 346 320 332 322 274C322 260 326 253 334 245Z" stroke="rgb(29,245,50)" stroke-opacity="1" stroke-width="8" fill="rgb(29,245,50)" fill-opacity="1"></path></g></g></g></g></svg>