<svg xmlns="http://www.w3.org/2000/svg" xmlns:xlink="http://www.w3.org/1999/xlink" width="227.21875" height="54.375" style="width:227.21875px;height:54.375px;font-family:Asana-Math, Asana;background:transparent;"><g><g><g><g transform="matrix(1,0,0,1,2,33.6875)"><path transform="matrix(0.017,0,0,-0.017,0,0)" d="M334 245C359 279 409 283 455 283C477 283 501 281 524 278C531 200 397 84 320 84C243 84 176 157 156 228C149 251 146 276 145 302C140 454 227 640 374 640C446 640 540 591 543 498C544 478 538 459 520 450C526 447 531 446 537 446C581 446 614 497 612 543C612 550 611 557 609 563C588 636 469 679 408 679C204 679 32 517 39 314C40 286 45 257 53 227C86 109 167 15 296 15C395 15 485 104 534 171C534 168 535 164 535 161C539 34 489 -119 344 -119C258 -119 167 -64 138 26L131 29C122 7 111 -41 112 -76C112 -84 112 -90 114 -96C129 -148 320 -167 360 -167C561 -167 610 56 612 221C612 242 611 265 620 282C634 310 674 317 677 353L670 356C654 343 632 339 609 339C560 339 511 346 462 346C415 346 320 332 322 274C322 260 326 253 334 245Z" stroke="rgb(29,245,50)" stroke-opacity="1" stroke-width="8" fill="rgb(29,245,50)" fill-opacity="1"></path></g></g><g><g transform="matrix(1,0,0,1,14.21875,33.6875)"><path transform="matrix(0.017,0,0,-0.017,0,0)" d="M146 266C146 526 243 632 301 700L282 726C225 675 60 542 60 266C60 159 85 58 133 -32C168 -99 200 -138 282 -215L301 -194C255 -137 146 -15 146 266Z" stroke="rgb(29,245,50)" stroke-opacity="1" stroke-width="8" fill="rgb(29,245,50)" fill-opacity="1"></path></g></g><g><g transform="matrix(1,0,0,1,19.875,33.6875)"><path transform="matrix(0.017,0,0,-0.017,0,0)" d="M322 -11C334 -11 343 -9 372 -1C383 61 391 95 402 142L380 142L358 82C352 64 340 57 319 57C307 57 291 59 270 64L252 68C219 75 185 80 166 80C134 80 107 74 71 59L410 441L416 473L407 482L384 459C374 449 364 445 350 445C316 445 264 453 216 466L198 471C170 478 150 482 136 482C119 482 99 479 75 472L43 350L64 350L94 408C111 412 120 413 133 413C174 413 206 398 259 398C295 398 319 404 352 421L-1 21L8 -6C37 17 64 26 99 26C162 26 253 -11 322 -11Z" stroke="rgb(29,245,50)" stroke-opacity="1" stroke-width="8" fill="rgb(29,245,50)" fill-opacity="1"></path></g></g><g><g transform="matrix(1,0,0,1,27.40625,33.6875)"><path transform="matrix(0.017,0,0,-0.017,0,0)" d="M204 123C177 114 159 108 106 93C99 17 74 -48 16 -144L30 -155L71 -136C152 -31 190 32 218 109Z" stroke="rgb(29,245,50)" stroke-opacity="1" stroke-width="8" fill="rgb(29,245,50)" fill-opacity="1"></path></g></g><g><g transform="matrix(1,0,0,1,35.03125,33.6875)"><path transform="matrix(0.017,0,0,-0.017,0,0)" d="M167 420C188 420 201 421 226 424C171 350 72 266 72 126C72 44 107 -11 160 -11C224 -11 276 44 350 187C341 143 338 118 338 95C338 32 367 -11 412 -11C546 -11 699 238 699 384C699 441 673 482 637 482C624 482 612 478 604 470L554 423L565 404C574 410 583 413 592 413C619 413 635 390 635 350C635 205 538 39 453 39C424 39 403 79 403 134C403 181 412 247 424 290L476 474L469 482L395 460L366 311C354 249 340 209 311 155C271 80 233 39 203 39C168 39 145 78 145 136C145 255 186 352 285 464L275 482C255 473 242 470 214 470C186 470 144 472 115 475L103 476C97 477 92 477 91 477C79 477 70 475 59 470C45 443 34 407 21 352L43 352L60 394C67 411 87 422 111 422C145 422 128 420 167 420Z" stroke="rgb(29,245,50)" stroke-opacity="1" stroke-width="8" fill="rgb(29,245,50)" fill-opacity="1"></path></g></g><g><g transform="matrix(1,0,0,1,47.296875,33.6875)"><path transform="matrix(0.017,0,0,-0.017,0,0)" d="M51 726L32 700C87 636 187 526 187 266C187 -10 83 -131 32 -194L51 -215C104 -165 273 -23 273 265C273 542 108 675 51 726Z" stroke="rgb(29,245,50)" stroke-opacity="1" stroke-width="8" fill="rgb(29,245,50)" fill-opacity="1"></path></g></g><g><g transform="matrix(1,0,0,1,52.953125,33.6875)"><path transform="matrix(0.017,0,0,-0.017,0,0)" d="" stroke="rgb(29,245,50)" stroke-opacity="1" stroke-width="8" fill="rgb(29,245,50)" fill-opacity="1"></path></g></g><g><g transform="matrix(1,0,0,1,62.28125,33.6875)"><path transform="matrix(0.017,0,0,-0.017,0,0)" d="M604 347L604 406L65 406L65 347ZM604 134L604 193L65 193L65 134Z" stroke="rgb(29,245,50)" stroke-opacity="1" stroke-width="8" fill="rgb(29,245,50)" fill-opacity="1"></path></g></g><g><g transform="matrix(1,0,0,1,78.734375,33.6875)"><path transform="matrix(0.017,0,0,-0.017,0,0)" d="" stroke="rgb(29,245,50)" stroke-opacity="1" stroke-width="8" fill="rgb(29,245,50)" fill-opacity="1"></path></g></g><g><svg x="84.15625" overflow="visible" y="3.6875" height="47" width="8.5"><path d=" M 6.27 1.70 c 0.00 -0.06 -0.04 -0.08 -0.08 -0.08 c -0.03 0.00 -0.06 0.01 -0.08 0.02 c -2.55 1.34 -4.65 3.73 -4.65 9.40 v 0.60 h 1.53 v -0.60 c 0.00 -3.23 0.64 -7.03 3.31 -9.06 c 0.12 -0.09 0.13 -0.19 0.13 -0.28 z   M 1.44 11.64 v 23.72 h 1.53 v -23.72 z" style="fill:rgb(29,245,50);fill-opacity:1;stroke-width:1px;stroke:none;stroke-opacity:1;"></path><path d=" M 6.27 45.30 c 0.00 0.06 -0.04 0.08 -0.08 0.08 c -0.03 0.00 -0.06 -0.01 -0.08 -0.02 c -2.55 -1.34 -4.65 -3.73 -4.65 -9.40 v -0.60 h 1.53 v 0.60 c 0.00 3.23 0.64 7.03 3.31 9.06 c 0.12 0.09 0.13 0.19 0.13 0.28 z" style="fill:rgb(29,245,50);fill-opacity:1;stroke-width:1px;stroke:none;stroke-opacity:1;"></path></svg></g><g><g><g><g><g transform="matrix(1,0,0,1,95,21.296875)"><path transform="matrix(0.017,0,0,-0.017,0,0)" d="M167 420C188 420 201 421 226 424C171 350 72 266 72 126C72 44 107 -11 160 -11C224 -11 276 44 350 187C341 143 338 118 338 95C338 32 367 -11 412 -11C546 -11 699 238 699 384C699 441 673 482 637 482C624 482 612 478 604 470L554 423L565 404C574 410 583 413 592 413C619 413 635 390 635 350C635 205 538 39 453 39C424 39 403 79 403 134C403 181 412 247 424 290L476 474L469 482L395 460L366 311C354 249 340 209 311 155C271 80 233 39 203 39C168 39 145 78 145 136C145 255 186 352 285 464L275 482C255 473 242 470 214 470C186 470 144 472 115 475L103 476C97 477 92 477 91 477C79 477 70 475 59 470C45 443 34 407 21 352L43 352L60 394C67 411 87 422 111 422C145 422 128 420 167 420Z" stroke="rgb(29,245,50)" stroke-opacity="1" stroke-width="8" fill="rgb(29,245,50)" fill-opacity="1"></path></g></g><g><g transform="matrix(1,0,0,1,110.65625,21.296875)"><path transform="matrix(0.017,0,0,-0.017,0,0)" d="M604 241L604 300L364 300L364 538L305 538L305 300L65 300L65 241L305 241L305 0L364 0L364 241Z" stroke="rgb(29,245,50)" stroke-opacity="1" stroke-width="8" fill="rgb(29,245,50)" fill-opacity="1"></path></g></g><g><g transform="matrix(1,0,0,1,125.40625,21.296875)"><path transform="matrix(0.017,0,0,-0.017,0,0)" d="M322 -11C334 -11 343 -9 372 -1C383 61 391 95 402 142L380 142L358 82C352 64 340 57 319 57C307 57 291 59 270 64L252 68C219 75 185 80 166 80C134 80 107 74 71 59L410 441L416 473L407 482L384 459C374 449 364 445 350 445C316 445 264 453 216 466L198 471C170 478 150 482 136 482C119 482 99 479 75 472L43 350L64 350L94 408C111 412 120 413 133 413C174 413 206 398 259 398C295 398 319 404 352 421L-1 21L8 -6C37 17 64 26 99 26C162 26 253 -11 322 -11ZM678 722L666 733C614 707 578 698 506 691L502 670L550 670C574 670 584 663 584 646C584 639 583 628 582 622L481 71C480 68 480 64 480 61C480 22 528 -11 583 -11C620 -11 671 8 714 39C810 107 876 244 876 376C876 414 867 453 855 468C848 477 835 482 820 482C796 482 766 474 738 460C687 433 654 403 592 324ZM765 424C791 424 804 401 804 352C804 288 783 202 753 137C720 68 680 36 626 36C580 36 555 59 555 101C555 135 570 276 651 361C684 395 736 424 765 424Z" stroke="rgb(29,245,50)" stroke-opacity="1" stroke-width="8" fill="rgb(29,245,50)" fill-opacity="1"></path></g></g></g></g><g><g><g><g transform="matrix(1,0,0,1,92.65625,47.078125)"><path transform="matrix(0.017,0,0,-0.017,0,0)" d="M16 23L16 -3C203 -3 203 0 239 0C275 0 275 -3 468 -3L468 82C353 77 307 81 122 77L304 270C401 373 431 428 431 503C431 618 353 689 226 689C154 689 105 669 56 619L39 483L68 483L81 529C97 587 133 612 200 612C286 612 341 558 341 473C341 398 299 324 186 204Z" stroke="rgb(29,245,50)" stroke-opacity="1" stroke-width="8" fill="rgb(29,245,50)" fill-opacity="1"></path></g></g><g><g transform="matrix(1,0,0,1,104.53125,47.078125)"><path transform="matrix(0.017,0,0,-0.017,0,0)" d="M604 241L604 300L364 300L364 538L305 538L305 300L65 300L65 241L305 241L305 0L364 0L364 241Z" stroke="rgb(29,245,50)" stroke-opacity="1" stroke-width="8" fill="rgb(29,245,50)" fill-opacity="1"></path></g></g><g><g transform="matrix(1,0,0,1,119.28125,47.078125)"><path transform="matrix(0.017,0,0,-0.017,0,0)" d="M409 603L47 -1L157 -1L497 659L497 689L44 689L44 477L74 477L81 533C89 595 96 603 142 603ZM770 204L741 77C737 60 735 42 735 26C735 4 744 -9 759 -9C782 -9 823 17 905 85L898 106C874 86 845 59 823 59C814 59 808 68 808 82C808 87 808 90 809 93L901 472L891 481L858 463C817 478 800 482 773 482C745 482 725 477 698 464C636 433 603 403 578 354C534 265 503 145 503 67C503 23 518 -11 537 -11C574 -11 654 41 770 204ZM818 414C796 305 777 253 743 201C686 117 625 59 593 59C581 59 575 72 575 99C575 163 603 280 638 360C662 415 685 433 733 433C756 433 774 429 818 414ZM1177 722L1165 733C1113 707 1077 698 1005 691L1001 670L1049 670C1073 670 1083 663 1083 646C1083 639 1082 628 1081 622L980 71C979 68 979 64 979 61C979 22 1027 -11 1082 -11C1119 -11 1170 8 1213 39C1309 107 1375 244 1375 376C1375 414 1366 453 1354 468C1347 477 1334 482 1319 482C1295 482 1265 474 1237 460C1186 433 1153 403 1091 324ZM1264 424C1290 424 1303 401 1303 352C1303 288 1282 202 1252 137C1219 68 1179 36 1125 36C1079 36 1054 59 1054 101C1054 135 1069 276 1150 361C1183 395 1235 424 1264 424Z" stroke="rgb(29,245,50)" stroke-opacity="1" stroke-width="8" fill="rgb(29,245,50)" fill-opacity="1"></path></g></g></g></g><line style="fill:none;stroke-width:1px;stroke:rgb(29, 245, 50);" x1="92.65625" y1="29.4375" x2="143.15625" y2="29.4375"></line></g><g><g transform="matrix(1,0,0,1,144.84375,33.6875)"><path transform="matrix(0.017,0,0,-0.017,0,0)" d="M204 123C177 114 159 108 106 93C99 17 74 -48 16 -144L30 -155L71 -136C152 -31 190 32 218 109Z" stroke="rgb(29,245,50)" stroke-opacity="1" stroke-width="8" fill="rgb(29,245,50)" fill-opacity="1"></path></g></g><g><g><g><g><g transform="matrix(1,0,0,1,154.15625,21.296875)"><path transform="matrix(0.017,0,0,-0.017,0,0)" d="M409 603L47 -1L157 -1L497 659L497 689L44 689L44 477L74 477L81 533C89 595 96 603 142 603ZM770 204L741 77C737 60 735 42 735 26C735 4 744 -9 759 -9C782 -9 823 17 905 85L898 106C874 86 845 59 823 59C814 59 808 68 808 82C808 87 808 90 809 93L901 472L891 481L858 463C817 478 800 482 773 482C745 482 725 477 698 464C636 433 603 403 578 354C534 265 503 145 503 67C503 23 518 -11 537 -11C574 -11 654 41 770 204ZM818 414C796 305 777 253 743 201C686 117 625 59 593 59C581 59 575 72 575 99C575 163 603 280 638 360C662 415 685 433 733 433C756 433 774 429 818 414ZM1109 420C1130 420 1143 421 1168 424C1113 350 1014 266 1014 126C1014 44 1049 -11 1102 -11C1166 -11 1218 44 1292 187C1283 143 1280 118 1280 95C1280 32 1309 -11 1354 -11C1488 -11 1641 238 1641 384C1641 441 1615 482 1579 482C1566 482 1554 478 1546 470L1496 423L1507 404C1516 410 1525 413 1534 413C1561 413 1577 390 1577 350C1577 205 1480 39 1395 39C1366 39 1345 79 1345 134C1345 181 1354 247 1366 290L1418 474L1411 482L1337 460L1308 311C1296 249 1282 209 1253 155C1213 80 1175 39 1145 39C1110 39 1087 78 1087 136C1087 255 1128 352 1227 464L1217 482C1197 473 1184 470 1156 470C1128 470 1086 472 1057 475L1045 476C1039 477 1034 477 1033 477C1021 477 1012 475 1001 470C987 443 976 407 963 352L985 352L1002 394C1009 411 1029 422 1053 422C1087 422 1070 420 1109 420Z" stroke="rgb(29,245,50)" stroke-opacity="1" stroke-width="8" fill="rgb(29,245,50)" fill-opacity="1"></path></g></g><g><g transform="matrix(1,0,0,1,185.828125,21.296875)"><path transform="matrix(0.017,0,0,-0.017,0,0)" d="M555 243L555 299L51 299L51 243Z" stroke="rgb(29,245,50)" stroke-opacity="1" stroke-width="8" fill="rgb(29,245,50)" fill-opacity="1"></path></g></g><g><g transform="matrix(1,0,0,1,199.515625,21.296875)"><path transform="matrix(0.017,0,0,-0.017,0,0)" d="M16 23L16 -3C203 -3 203 0 239 0C275 0 275 -3 468 -3L468 82C353 77 307 81 122 77L304 270C401 373 431 428 431 503C431 618 353 689 226 689C154 689 105 669 56 619L39 483L68 483L81 529C97 587 133 612 200 612C286 612 341 558 341 473C341 398 299 324 186 204ZM821 -11C833 -11 842 -9 871 -1C882 61 890 95 901 142L879 142L857 82C851 64 839 57 818 57C806 57 790 59 769 64L751 68C718 75 684 80 665 80C633 80 606 74 570 59L909 441L915 473L906 482L883 459C873 449 863 445 849 445C815 445 763 453 715 466L697 471C669 478 649 482 635 482C618 482 598 479 574 472L542 350L563 350L593 408C610 412 619 413 632 413C673 413 705 398 758 398C794 398 818 404 851 421L498 21L507 -6C536 17 563 26 598 26C661 26 752 -11 821 -11Z" stroke="rgb(29,245,50)" stroke-opacity="1" stroke-width="8" fill="rgb(29,245,50)" fill-opacity="1"></path></g></g></g></g><g><g><g><g transform="matrix(1,0,0,1,159.59375,47.078125)"><path transform="matrix(0.017,0,0,-0.017,0,0)" d="M16 23L16 -3C203 -3 203 0 239 0C275 0 275 -3 468 -3L468 82C353 77 307 81 122 77L304 270C401 373 431 428 431 503C431 618 353 689 226 689C154 689 105 669 56 619L39 483L68 483L81 529C97 587 133 612 200 612C286 612 341 558 341 473C341 398 299 324 186 204Z" stroke="rgb(29,245,50)" stroke-opacity="1" stroke-width="8" fill="rgb(29,245,50)" fill-opacity="1"></path></g></g><g><g transform="matrix(1,0,0,1,171.46875,47.078125)"><path transform="matrix(0.017,0,0,-0.017,0,0)" d="M604 241L604 300L364 300L364 538L305 538L305 300L65 300L65 241L305 241L305 0L364 0L364 241Z" stroke="rgb(29,245,50)" stroke-opacity="1" stroke-width="8" fill="rgb(29,245,50)" fill-opacity="1"></path></g></g><g><g transform="matrix(1,0,0,1,186.21875,47.078125)"><path transform="matrix(0.017,0,0,-0.017,0,0)" d="M409 603L47 -1L157 -1L497 659L497 689L44 689L44 477L74 477L81 533C89 595 96 603 142 603ZM770 204L741 77C737 60 735 42 735 26C735 4 744 -9 759 -9C782 -9 823 17 905 85L898 106C874 86 845 59 823 59C814 59 808 68 808 82C808 87 808 90 809 93L901 472L891 481L858 463C817 478 800 482 773 482C745 482 725 477 698 464C636 433 603 403 578 354C534 265 503 145 503 67C503 23 518 -11 537 -11C574 -11 654 41 770 204ZM818 414C796 305 777 253 743 201C686 117 625 59 593 59C581 59 575 72 575 99C575 163 603 280 638 360C662 415 685 433 733 433C756 433 774 429 818 414ZM1177 722L1165 733C1113 707 1077 698 1005 691L1001 670L1049 670C1073 670 1083 663 1083 646C1083 639 1082 628 1081 622L980 71C979 68 979 64 979 61C979 22 1027 -11 1082 -11C1119 -11 1170 8 1213 39C1309 107 1375 244 1375 376C1375 414 1366 453 1354 468C1347 477 1334 482 1319 482C1295 482 1265 474 1237 460C1186 433 1153 403 1091 324ZM1264 424C1290 424 1303 401 1303 352C1303 288 1282 202 1252 137C1219 68 1179 36 1125 36C1079 36 1054 59 1054 101C1054 135 1069 276 1150 361C1183 395 1235 424 1264 424Z" stroke="rgb(29,245,50)" stroke-opacity="1" stroke-width="8" fill="rgb(29,245,50)" fill-opacity="1"></path></g></g></g></g><line style="fill:none;stroke-width:1px;stroke:rgb(29, 245, 50);" x1="154.15625" y1="29.4375" x2="215.53125" y2="29.4375"></line></g><g><svg x="215.53125" overflow="visible" y="3.6875" height="47" width="8.5"><path d=" M 1.75 1.70 c 0.00 -0.06 0.04 -0.08 0.08 -0.08 c 0.03 0.00 0.06 0.01 0.08 0.02 c 2.55 1.34 4.65 3.73 4.65 9.40 v 0.60 h -1.53 v -0.60 c 0.00 -3.23 -0.64 -7.03 -3.31 -9.06 c -0.12 -0.09 -0.13 -0.19 -0.13 -0.28 z  M 6.58 11.64 v 23.72 h -1.53 v -23.72 z" style="fill:rgb(29,245,50);fill-opacity:1;stroke-width:1px;stroke:none;stroke-opacity:1;"></path><path d=" M 1.75 45.30 c 0.00 0.06 0.04 0.08 0.08 0.08 c 0.03 0.00 0.06 -0.01 0.08 -0.02 c 2.55 -1.34 4.65 -3.73 4.65 -9.40 v -0.60 h -1.53 v 0.60 c 0.00 3.23 -0.64 7.03 -3.31 9.06 c -0.12 0.09 -0.13 0.19 -0.13 0.28 z" style="fill:rgb(29,245,50);fill-opacity:1;stroke-width:1px;stroke:none;stroke-opacity:1;"></path></svg></g></g></g></svg>