<svg xmlns="http://www.w3.org/2000/svg" xmlns:xlink="http://www.w3.org/1999/xlink" width="314.828125" height="24.390625" style="width:314.828125px;height:24.390625px;font-family:Asana-Math, Asana;background:transparent;"><g><g><g><g transform="matrix(1,0,0,1,2,19)"><path transform="matrix(0.017,0,0,-0.017,0,0)" d="M271 204L242 77C238 60 236 42 236 26C236 4 245 -9 260 -9C283 -9 324 17 406 85L399 106C375 86 346 59 324 59C315 59 309 68 309 82C309 87 309 90 310 93L402 472L392 481L359 463C318 478 301 482 274 482C246 482 226 477 199 464C137 433 104 403 79 354C35 265 4 145 4 67C4 23 19 -11 38 -11C75 -11 155 41 271 204ZM319 414C297 305 278 253 244 201C187 117 126 59 94 59C82 59 76 72 76 99C76 163 104 280 139 360C163 415 186 433 234 433C257 433 275 429 319 414Z" stroke="rgb(29,245,50)" stroke-opacity="1" stroke-width="8" fill="rgb(29,245,50)" fill-opacity="1"></path></g></g><g><g transform="matrix(1,0,0,1,9.53125,19)"><path transform="matrix(0.017,0,0,-0.017,0,0)" d="M204 123C177 114 159 108 106 93C99 17 74 -48 16 -144L30 -155L71 -136C152 -31 190 32 218 109Z" stroke="rgb(29,245,50)" stroke-opacity="1" stroke-width="8" fill="rgb(29,245,50)" fill-opacity="1"></path></g></g><g><g transform="matrix(1,0,0,1,17.15625,19)"><path transform="matrix(0.017,0,0,-0.017,0,0)" d="M235 722L223 733C171 707 135 698 63 691L59 670L107 670C131 670 141 663 141 646C141 639 140 628 139 622L38 71C37 68 37 64 37 61C37 22 85 -11 140 -11C177 -11 228 8 271 39C367 107 433 244 433 376C433 414 424 453 412 468C405 477 392 482 377 482C353 482 323 474 295 460C244 433 211 403 149 324ZM322 424C348 424 361 401 361 352C361 288 340 202 310 137C277 68 237 36 183 36C137 36 112 59 112 101C112 135 127 276 208 361C241 395 293 424 322 424Z" stroke="rgb(29,245,50)" stroke-opacity="1" stroke-width="8" fill="rgb(29,245,50)" fill-opacity="1"></path></g></g><g><g transform="matrix(1,0,0,1,34.34375,19)"><path transform="matrix(0.017,0,0,-0.017,0,0)" d="M509 8L509 61L309 61C215 61 122 139 109 244L492 244L492 297L109 297C121 397 204 480 309 480L509 480L509 533L314 533C167 533 55 411 55 271C55 131 167 8 314 8Z" stroke="rgb(29,245,50)" stroke-opacity="1" stroke-width="8" fill="rgb(29,245,50)" fill-opacity="1"></path></g></g><g><g transform="matrix(1,0,0,1,49.015625,19)"><path transform="matrix(0.017,0,0,-0.017,0,0)" d="" stroke="rgb(29,245,50)" stroke-opacity="1" stroke-width="8" fill="rgb(29,245,50)" fill-opacity="1"></path></g></g><g><g transform="matrix(1,0,0,1,53.25,19)"><path transform="matrix(0.017,0,0,-0.017,0,0)" d="M934 662L934 692C889 691 854 689 814 689C778 689 738 691 698 692L698 662L742 659C785 655 793 651 793 569L793 102L789 102L312 692C294 691 276 689 258 689L138 689C96 689 51 691 17 692L17 662L61 659C102 656 112 648 112 569L112 120C112 41 102 31 61 29L17 27L17 -3C51 -2 96 -2 138 -1C178 -1 218 0 254 0C294 0 329 -2 374 -3L374 27L329 29C286 31 279 41 279 120L279 581L281 581L752 0L839 0L839 569C839 653 848 655 889 659ZM189 31C163 34 158 46 158 120L158 569C158 643 163 655 189 658C227 654 233 648 233 569L233 120C233 40 226 35 189 31Z" stroke="rgb(29,245,50)" stroke-opacity="1" stroke-width="8" fill="rgb(29,245,50)" fill-opacity="1"></path></g></g><g><g transform="matrix(1,0,0,1,69.421875,19)"><path transform="matrix(0.017,0,0,-0.017,0,0)" d="M374 390L318 107C317 99 305 61 305 31C305 6 316 -9 335 -9C370 -9 405 11 483 74L514 99L504 117L459 86C430 66 410 56 399 56C390 56 385 64 385 76C385 102 399 183 428 328L441 390L548 390L559 440C521 436 487 434 449 434C465 528 476 577 494 631L483 646C463 634 436 622 405 610L380 440C336 419 310 408 292 403L290 390ZM852 204L823 77C819 60 817 42 817 26C817 4 826 -9 841 -9C864 -9 905 17 987 85L980 106C956 86 927 59 905 59C896 59 890 68 890 82C890 87 890 90 891 93L983 472L973 481L940 463C899 478 882 482 855 482C827 482 807 477 780 464C718 433 685 403 660 354C616 265 585 145 585 67C585 23 600 -11 619 -11C656 -11 736 41 852 204ZM900 414C878 305 859 253 825 201C768 117 707 59 675 59C663 59 657 72 657 99C657 163 685 280 720 360C744 415 767 433 815 433C838 433 856 429 900 414ZM1275 722L1263 733C1211 707 1175 698 1103 691L1099 670L1147 670C1171 670 1181 663 1181 648C1181 645 1181 640 1178 622C1167 567 1094 182 1079 132C1066 82 1060 52 1060 31C1060 6 1071 -9 1090 -9C1116 -9 1152 12 1250 85L1240 103L1214 86C1185 67 1163 56 1153 56C1146 56 1140 66 1140 76C1140 82 1141 89 1144 104ZM1935 458C1892 475 1863 482 1834 482C1759 482 1671 394 1653 374C1613 327 1574 181 1574 78C1574 19 1586 -11 1610 -11C1632 -11 1651 -3 1683 19C1730 51 1809 121 1858 209L1782 -205C1777 -229 1767 -249 1755 -262L1764 -276C1795 -268 1826 -262 1850 -259C1854 -205 1860 -150 1869 -100L1955 356C1966 417 1972 443 1982 474L1968 480ZM1668 59C1654 59 1646 80 1646 113C1646 209 1689 359 1731 409C1743 424 1772 433 1804 433C1832 433 1853 427 1901 406L1880 311C1851 174 1710 59 1668 59ZM2504 473L2497 482L2429 465L2419 414C2404 336 2379 268 2348 221C2289 130 2211 59 2171 59C2163 59 2158 68 2158 85C2158 99 2160 112 2165 137L2222 408C2225 424 2227 438 2227 451C2227 470 2218 482 2204 482C2184 482 2146 461 2072 408L2044 388L2051 368L2083 389C2111 407 2122 412 2131 412C2140 412 2148 403 2148 392C2148 388 2147 378 2146 374L2083 77C2081 68 2079 44 2079 30C2079 7 2094 -11 2114 -11C2177 -11 2298 101 2382 239L2345 97C2338 73 2334 46 2334 31C2334 6 2345 -9 2364 -9C2390 -9 2426 12 2524 85L2514 103L2488 86C2464 70 2438 59 2427 59C2419 59 2414 66 2414 76C2414 112 2489 416 2504 473ZM2895 111L2871 94C2818 56 2770 36 2734 36C2687 36 2658 73 2658 133C2658 158 2661 185 2666 214C2683 218 2792 248 2817 259C2902 296 2941 342 2941 404C2941 451 2907 482 2857 482C2789 496 2679 423 2642 349C2612 299 2582 180 2582 113C2582 35 2626 -11 2698 -11C2755 -11 2811 17 2903 92ZM2680 274C2697 343 2717 386 2746 412C2764 428 2795 440 2819 440C2848 440 2867 420 2867 388C2867 344 2832 297 2780 272C2752 258 2716 247 2671 237ZM3622 -3L3622 27L3570 30C3515 33 3505 44 3505 96L3505 700L3264 598L3271 548L3421 614L3421 96C3421 44 3410 33 3356 30L3300 27L3300 -3C3454 0 3454 0 3465 0C3496 0 3606 -3 3622 -3Z" stroke="rgb(29,245,50)" stroke-opacity="1" stroke-width="8" fill="rgb(29,245,50)" fill-opacity="1"></path></g></g><g><g transform="matrix(1,0,0,1,141.703125,19)"><path transform="matrix(0.017,0,0,-0.017,0,0)" d="M604 76L604 135L166 340L604 545L604 604L65 349L65 328ZM604 -61L604 -5L65 -5L65 -61Z" stroke="rgb(29,245,50)" stroke-opacity="1" stroke-width="8" fill="rgb(29,245,50)" fill-opacity="1"></path></g></g><g><g transform="matrix(1,0,0,1,158.171875,19)"><path transform="matrix(0.017,0,0,-0.017,0,0)" d="M520 204L491 77C487 60 485 42 485 26C485 4 494 -9 509 -9C532 -9 573 17 655 85L648 106C624 86 595 59 573 59C564 59 558 68 558 82C558 87 558 90 559 93L651 472L641 481L608 463C567 478 550 482 523 482C495 482 475 477 448 464C386 433 353 403 328 354C284 265 253 145 253 67C253 23 268 -11 287 -11C324 -11 404 41 520 204ZM568 414C546 305 527 253 493 201C436 117 375 59 343 59C331 59 325 72 325 99C325 163 353 280 388 360C412 415 435 433 483 433C506 433 524 429 568 414Z" stroke="rgb(29,245,50)" stroke-opacity="1" stroke-width="8" fill="rgb(29,245,50)" fill-opacity="1"></path></g></g><g><g transform="matrix(1,0,0,1,179.265625,19)"><path transform="matrix(0.017,0,0,-0.017,0,0)" d="M604 76L604 135L166 340L604 545L604 604L65 349L65 328ZM604 -61L604 -5L65 -5L65 -61Z" stroke="rgb(29,245,50)" stroke-opacity="1" stroke-width="8" fill="rgb(29,245,50)" fill-opacity="1"></path></g></g><g><g transform="matrix(1,0,0,1,195.734375,19)"><path transform="matrix(0.017,0,0,-0.017,0,0)" d="M345 -20C456 16 504 39 558 85C655 168 706 283 706 417C706 586 625 689 493 689C365 689 269 589 269 455C269 340 344 256 448 256C482 256 521 267 539 282L609 340C601 172 492 49 311 5L311 -3ZM489 656C534 656 567 637 589 597C607 565 619 516 619 471C619 379 566 317 489 317C409 317 355 388 355 492C355 593 407 656 489 656Z" stroke="rgb(29,245,50)" stroke-opacity="1" stroke-width="8" fill="rgb(29,245,50)" fill-opacity="1"></path></g></g><g><g transform="matrix(1,0,0,1,208.453125,19)"><path transform="matrix(0.017,0,0,-0.017,0,0)" d="M204 123C177 114 159 108 106 93C99 17 74 -48 16 -144L30 -155L71 -136C152 -31 190 32 218 109Z" stroke="rgb(29,245,50)" stroke-opacity="1" stroke-width="8" fill="rgb(29,245,50)" fill-opacity="1"></path></g></g><g><g transform="matrix(1,0,0,1,216.078125,19)"><path transform="matrix(0.017,0,0,-0.017,0,0)" d="M667 -3L667 27L615 30C560 33 550 44 550 96L550 700L309 598L316 548L466 614L466 96C466 44 455 33 401 30L345 27L345 -3C499 0 499 0 510 0C541 0 651 -3 667 -3Z" stroke="rgb(29,245,50)" stroke-opacity="1" stroke-width="8" fill="rgb(29,245,50)" fill-opacity="1"></path></g></g><g><g transform="matrix(1,0,0,1,238.125,19)"><path transform="matrix(0.017,0,0,-0.017,0,0)" d="M604 76L604 135L166 340L604 545L604 604L65 349L65 328ZM604 -61L604 -5L65 -5L65 -61Z" stroke="rgb(29,245,50)" stroke-opacity="1" stroke-width="8" fill="rgb(29,245,50)" fill-opacity="1"></path></g></g><g><g transform="matrix(1,0,0,1,254.59375,19)"><path transform="matrix(0.017,0,0,-0.017,0,0)" d="M484 722L472 733C420 707 384 698 312 691L308 670L356 670C380 670 390 663 390 646C390 639 389 628 388 622L287 71C286 68 286 64 286 61C286 22 334 -11 389 -11C426 -11 477 8 520 39C616 107 682 244 682 376C682 414 673 453 661 468C654 477 641 482 626 482C602 482 572 474 544 460C493 433 460 403 398 324ZM571 424C597 424 610 401 610 352C610 288 589 202 559 137C526 68 486 36 432 36C386 36 361 59 361 101C361 135 376 276 457 361C490 395 542 424 571 424Z" stroke="rgb(29,245,50)" stroke-opacity="1" stroke-width="8" fill="rgb(29,245,50)" fill-opacity="1"></path></g></g><g><g transform="matrix(1,0,0,1,276.015625,19)"><path transform="matrix(0.017,0,0,-0.017,0,0)" d="M604 76L604 135L166 340L604 545L604 604L65 349L65 328ZM604 -61L604 -5L65 -5L65 -61Z" stroke="rgb(29,245,50)" stroke-opacity="1" stroke-width="8" fill="rgb(29,245,50)" fill-opacity="1"></path></g></g><g><g transform="matrix(1,0,0,1,292.484375,19)"><path transform="matrix(0.017,0,0,-0.017,0,0)" d="M345 -20C456 16 504 39 558 85C655 168 706 283 706 417C706 586 625 689 493 689C365 689 269 589 269 455C269 340 344 256 448 256C482 256 521 267 539 282L609 340C601 172 492 49 311 5L311 -3ZM489 656C534 656 567 637 589 597C607 565 619 516 619 471C619 379 566 317 489 317C409 317 355 388 355 492C355 593 407 656 489 656Z" stroke="rgb(29,245,50)" stroke-opacity="1" stroke-width="8" fill="rgb(29,245,50)" fill-opacity="1"></path></g></g><g><g transform="matrix(1,0,0,1,305.203125,19)"><path transform="matrix(0.017,0,0,-0.017,0,0)" d="M204 125C177 116 159 110 106 95C99 19 74 -46 16 -142L30 -153L71 -134C152 -29 190 34 218 111ZM150 456C120 456 93 428 93 398C93 368 120 340 149 340C181 340 209 367 209 397C209 428 181 456 150 456Z" stroke="rgb(29,245,50)" stroke-opacity="1" stroke-width="8" fill="rgb(29,245,50)" fill-opacity="1"></path></g></g></g></g></svg>