<svg xmlns="http://www.w3.org/2000/svg" xmlns:xlink="http://www.w3.org/1999/xlink" width="325.6875" height="67.5625" style="width:325.6875px;height:67.5625px;font-family:Asana-Math, Asana;background:transparent;"><g><g><g><g transform="matrix(1,0,0,1,2,19)"><path transform="matrix(0.017,0,0,-0.017,0,0)" d="M483 722L471 733C419 707 383 698 311 691L307 670L355 670C379 670 389 663 389 646C389 638 388 629 387 622L359 468C329 477 302 482 277 482C208 482 114 410 68 323C37 265 17 170 17 86C17 21 32 -11 61 -11C88 -11 125 6 159 33C213 77 246 116 313 217L290 126C279 82 274 50 274 24C274 3 283 -9 300 -9C317 -9 341 3 375 28L456 88L446 107L402 76C388 66 372 59 363 59C355 59 349 68 349 82C349 90 350 99 357 128ZM114 59C98 59 89 73 89 98C89 224 135 380 184 418C197 428 216 433 243 433C287 433 316 427 349 410L337 351C300 171 159 59 114 59ZM827 111L803 94C750 56 702 36 666 36C619 36 590 73 590 133C590 158 593 185 598 214C615 218 724 248 749 259C834 296 873 342 873 404C873 451 839 482 789 482C721 496 611 423 574 349C544 299 514 180 514 113C514 35 558 -11 630 -11C687 -11 743 17 835 92ZM612 274C629 343 649 386 678 412C696 428 727 440 751 440C780 440 799 420 799 388C799 344 764 297 712 272C684 258 648 247 603 237ZM1012 390L956 107C955 99 943 61 943 31C943 6 954 -9 973 -9C1008 -9 1043 11 1121 74L1152 99L1142 117L1097 86C1068 66 1048 56 1037 56C1028 56 1023 64 1023 76C1023 102 1037 183 1066 328L1079 390L1186 390L1197 440C1159 436 1125 434 1087 434C1103 528 1114 577 1132 631L1121 646C1101 634 1074 622 1043 610L1018 440C974 419 948 408 930 403L928 390Z" stroke="rgb(29,245,50)" stroke-opacity="1" stroke-width="8" fill="rgb(29,245,50)" fill-opacity="1"></path></g></g><g><g transform="matrix(1,0,0,1,22.734375,19)"><path transform="matrix(0.017,0,0,-0.017,0,0)" d="M146 266C146 526 243 632 301 700L282 726C225 675 60 542 60 266C60 159 85 58 133 -32C168 -99 200 -138 282 -215L301 -194C255 -137 146 -15 146 266Z" stroke="rgb(29,245,50)" stroke-opacity="1" stroke-width="8" fill="rgb(29,245,50)" fill-opacity="1"></path></g></g><g><g transform="matrix(1,0,0,1,28.390625,19)"><path transform="matrix(0.017,0,0,-0.017,0,0)" d="M88 -184C88 -184 182 -183 182 -183C182 -183 282 -184 282 -184L288 -178L288 -152L284 -147L246 -147C219 -147 197 -141 185 -131C176 -122 173 -108 173 -75L173 616C173 649 176 664 185 673C197 683 219 689 246 689L284 689L288 694L288 720L282 726L188 723L88 726C84 717 83 706 83 691C83 665 87 628 87 578L87 -44C87 -112 85 -140 79 -171Z" stroke="rgb(29,245,50)" stroke-opacity="1" stroke-width="8" fill="rgb(29,245,50)" fill-opacity="1"></path></g></g><g><g transform="matrix(1,0,0,1,34.046875,19)"><path transform="matrix(0.017,0,0,-0.017,0,0)" d="M746 705C747 702 747 698 747 695C747 651 669 645 632 645C525 645 413 671 306 671C282 671 258 670 235 666C151 652 24 571 24 469C24 423 106 337 147 337C151 337 154 338 158 339C117 368 95 420 95 477C95 580 166 621 267 621C300 621 332 619 366 616C292 566 264 486 265 391C247 391 229 391 210 394C203 378 194 363 186 348C206 355 229 356 252 356L267 356C269 332 270 300 270 265C270 132 248 -47 128 -47C118 -47 105 -44 96 -38C104 -59 127 -66 145 -66C171 -66 197 -63 220 -53C388 24 358 191 368 360L582 360C594 360 610 399 615 409L611 413C587 393 496 393 459 393L365 393C365 405 364 425 364 448C364 515 370 610 413 610C481 610 552 592 620 592C663 592 762 625 762 676C762 689 756 699 746 705Z" stroke="rgb(29,245,50)" stroke-opacity="1" stroke-width="8" fill="rgb(29,245,50)" fill-opacity="1"></path></g></g><g><g transform="matrix(1,0,0,1,47.21875,19)"><path transform="matrix(0.017,0,0,-0.017,0,0)" d="M245 -184L254 -171C248 -140 246 -112 246 -44L246 578C246 628 250 665 250 691C250 706 249 717 245 726L51 726L45 720L45 694L49 689L87 689C114 689 136 683 148 673C157 664 160 649 160 616L160 -75C160 -108 157 -122 148 -131C136 -141 114 -147 87 -147L49 -147L45 -152L45 -178L51 -184Z" stroke="rgb(29,245,50)" stroke-opacity="1" stroke-width="8" fill="rgb(29,245,50)" fill-opacity="1"></path></g></g><g><g transform="matrix(1,0,0,1,52.875,19)"><path transform="matrix(0.017,0,0,-0.017,0,0)" d="M51 726L32 700C87 636 187 526 187 266C187 -10 83 -131 32 -194L51 -215C104 -165 273 -23 273 265C273 542 108 675 51 726Z" stroke="rgb(29,245,50)" stroke-opacity="1" stroke-width="8" fill="rgb(29,245,50)" fill-opacity="1"></path></g></g><g><g transform="matrix(1,0,0,1,63.625,19)"><path transform="matrix(0.017,0,0,-0.017,0,0)" d="M604 347L604 406L65 406L65 347ZM604 134L604 193L65 193L65 134Z" stroke="rgb(29,245,50)" stroke-opacity="1" stroke-width="8" fill="rgb(29,245,50)" fill-opacity="1"></path></g></g><g><g transform="matrix(1,0,0,1,80.078125,19)"><path transform="matrix(0.017,0,0,-0.017,0,0)" d="M658 603L296 -1L406 -1L746 659L746 689L293 689L293 477L323 477L330 533C338 595 345 603 391 603ZM1019 204L990 77C986 60 984 42 984 26C984 4 993 -9 1008 -9C1031 -9 1072 17 1154 85L1147 106C1123 86 1094 59 1072 59C1063 59 1057 68 1057 82C1057 87 1057 90 1058 93L1150 472L1140 481L1107 463C1066 478 1049 482 1022 482C994 482 974 477 947 464C885 433 852 403 827 354C783 265 752 145 752 67C752 23 767 -11 786 -11C823 -11 903 41 1019 204ZM1067 414C1045 305 1026 253 992 201C935 117 874 59 842 59C830 59 824 72 824 99C824 163 852 280 887 360C911 415 934 433 982 433C1005 433 1023 429 1067 414ZM1426 722L1414 733C1362 707 1326 698 1254 691L1250 670L1298 670C1322 670 1332 663 1332 646C1332 639 1331 628 1330 622L1229 71C1228 68 1228 64 1228 61C1228 22 1276 -11 1331 -11C1368 -11 1419 8 1462 39C1558 107 1624 244 1624 376C1624 414 1615 453 1603 468C1596 477 1583 482 1568 482C1544 482 1514 474 1486 460C1435 433 1402 403 1340 324ZM1513 424C1539 424 1552 401 1552 352C1552 288 1531 202 1501 137C1468 68 1428 36 1374 36C1328 36 1303 59 1303 101C1303 135 1318 276 1399 361C1432 395 1484 424 1513 424Z" stroke="rgb(29,245,50)" stroke-opacity="1" stroke-width="8" fill="rgb(29,245,50)" fill-opacity="1"></path></g></g><g><g transform="matrix(1,0,0,1,111.578125,19)"><path transform="matrix(0.017,0,0,-0.017,0,0)" d="M604 241L604 300L364 300L364 538L305 538L305 300L65 300L65 241L305 241L305 0L364 0L364 241Z" stroke="rgb(29,245,50)" stroke-opacity="1" stroke-width="8" fill="rgb(29,245,50)" fill-opacity="1"></path></g></g><g><g transform="matrix(1,0,0,1,126.328125,19)"><path transform="matrix(0.017,0,0,-0.017,0,0)" d="M16 23L16 -3C203 -3 203 0 239 0C275 0 275 -3 468 -3L468 82C353 77 307 81 122 77L304 270C401 373 431 428 431 503C431 618 353 689 226 689C154 689 105 669 56 619L39 483L68 483L81 529C97 587 133 612 200 612C286 612 341 558 341 473C341 398 299 324 186 204Z" stroke="rgb(29,245,50)" stroke-opacity="1" stroke-width="8" fill="rgb(29,245,50)" fill-opacity="1"></path></g></g></g><g><g><g transform="matrix(1,0,0,1,2,51.78125)"><path transform="matrix(0.017,0,0,-0.017,0,0)" d="M483 722L471 733C419 707 383 698 311 691L307 670L355 670C379 670 389 663 389 646C389 638 388 629 387 622L359 468C329 477 302 482 277 482C208 482 114 410 68 323C37 265 17 170 17 86C17 21 32 -11 61 -11C88 -11 125 6 159 33C213 77 246 116 313 217L290 126C279 82 274 50 274 24C274 3 283 -9 300 -9C317 -9 341 3 375 28L456 88L446 107L402 76C388 66 372 59 363 59C355 59 349 68 349 82C349 90 350 99 357 128ZM114 59C98 59 89 73 89 98C89 224 135 380 184 418C197 428 216 433 243 433C287 433 316 427 349 410L337 351C300 171 159 59 114 59ZM827 111L803 94C750 56 702 36 666 36C619 36 590 73 590 133C590 158 593 185 598 214C615 218 724 248 749 259C834 296 873 342 873 404C873 451 839 482 789 482C721 496 611 423 574 349C544 299 514 180 514 113C514 35 558 -11 630 -11C687 -11 743 17 835 92ZM612 274C629 343 649 386 678 412C696 428 727 440 751 440C780 440 799 420 799 388C799 344 764 297 712 272C684 258 648 247 603 237ZM1012 390L956 107C955 99 943 61 943 31C943 6 954 -9 973 -9C1008 -9 1043 11 1121 74L1152 99L1142 117L1097 86C1068 66 1048 56 1037 56C1028 56 1023 64 1023 76C1023 102 1037 183 1066 328L1079 390L1186 390L1197 440C1159 436 1125 434 1087 434C1103 528 1114 577 1132 631L1121 646C1101 634 1074 622 1043 610L1018 440C974 419 948 408 930 403L928 390Z" stroke="rgb(29,245,50)" stroke-opacity="1" stroke-width="8" fill="rgb(29,245,50)" fill-opacity="1"></path></g></g><g><g transform="matrix(1,0,0,1,22.734375,51.78125)"><path transform="matrix(0.017,0,0,-0.017,0,0)" d="M146 266C146 526 243 632 301 700L282 726C225 675 60 542 60 266C60 159 85 58 133 -32C168 -99 200 -138 282 -215L301 -194C255 -137 146 -15 146 266Z" stroke="rgb(29,245,50)" stroke-opacity="1" stroke-width="8" fill="rgb(29,245,50)" fill-opacity="1"></path></g></g><g><g transform="matrix(1,0,0,1,28.390625,51.78125)"><path transform="matrix(0.017,0,0,-0.017,0,0)" d="M88 -184C88 -184 182 -183 182 -183C182 -183 282 -184 282 -184L288 -178L288 -152L284 -147L246 -147C219 -147 197 -141 185 -131C176 -122 173 -108 173 -75L173 616C173 649 176 664 185 673C197 683 219 689 246 689L284 689L288 694L288 720L282 726L188 723L88 726C84 717 83 706 83 691C83 665 87 628 87 578L87 -44C87 -112 85 -140 79 -171Z" stroke="rgb(29,245,50)" stroke-opacity="1" stroke-width="8" fill="rgb(29,245,50)" fill-opacity="1"></path></g></g><g><g transform="matrix(1,0,0,1,34.046875,51.78125)"><path transform="matrix(0.017,0,0,-0.017,0,0)" d="M746 705C747 702 747 698 747 695C747 651 669 645 632 645C525 645 413 671 306 671C282 671 258 670 235 666C151 652 24 571 24 469C24 423 106 337 147 337C151 337 154 338 158 339C117 368 95 420 95 477C95 580 166 621 267 621C300 621 332 619 366 616C292 566 264 486 265 391C247 391 229 391 210 394C203 378 194 363 186 348C206 355 229 356 252 356L267 356C269 332 270 300 270 265C270 132 248 -47 128 -47C118 -47 105 -44 96 -38C104 -59 127 -66 145 -66C171 -66 197 -63 220 -53C388 24 358 191 368 360L582 360C594 360 610 399 615 409L611 413C587 393 496 393 459 393L365 393C365 405 364 425 364 448C364 515 370 610 413 610C481 610 552 592 620 592C663 592 762 625 762 676C762 689 756 699 746 705Z" stroke="rgb(29,245,50)" stroke-opacity="1" stroke-width="8" fill="rgb(29,245,50)" fill-opacity="1"></path></g></g><g><g transform="matrix(1,0,0,1,47.21875,51.78125)"><path transform="matrix(0.017,0,0,-0.017,0,0)" d="M245 -184L254 -171C248 -140 246 -112 246 -44L246 578C246 628 250 665 250 691C250 706 249 717 245 726L51 726L45 720L45 694L49 689L87 689C114 689 136 683 148 673C157 664 160 649 160 616L160 -75C160 -108 157 -122 148 -131C136 -141 114 -147 87 -147L49 -147L45 -152L45 -178L51 -184Z" stroke="rgb(29,245,50)" stroke-opacity="1" stroke-width="8" fill="rgb(29,245,50)" fill-opacity="1"></path></g></g><g><g transform="matrix(1,0,0,1,52.875,51.78125)"><path transform="matrix(0.017,0,0,-0.017,0,0)" d="M51 726L32 700C87 636 187 526 187 266C187 -10 83 -131 32 -194L51 -215C104 -165 273 -23 273 265C273 542 108 675 51 726Z" stroke="rgb(29,245,50)" stroke-opacity="1" stroke-width="8" fill="rgb(29,245,50)" fill-opacity="1"></path></g></g><g><g transform="matrix(1,0,0,1,58.53125,51.78125)"><path transform="matrix(0.017,0,0,-0.017,0,0)" d="" stroke="rgb(29,245,50)" stroke-opacity="1" stroke-width="8" fill="rgb(29,245,50)" fill-opacity="1"></path></g></g><g><g transform="matrix(1,0,0,1,67.859375,51.78125)"><path transform="matrix(0.017,0,0,-0.017,0,0)" d="M604 347L604 406L65 406L65 347ZM604 134L604 193L65 193L65 134Z" stroke="rgb(29,245,50)" stroke-opacity="1" stroke-width="8" fill="rgb(29,245,50)" fill-opacity="1"></path></g></g><g><g transform="matrix(1,0,0,1,84.3125,51.78125)"><path transform="matrix(0.017,0,0,-0.017,0,0)" d="M512 689C357 689 278 566 278 324C278 207 299 106 334 57C369 8 425 -20 487 -20C638 -20 714 110 714 366C714 585 649 689 512 689ZM494 654C591 654 630 556 630 316C630 103 592 15 500 15C403 15 362 116 362 360C362 571 399 654 494 654Z" stroke="rgb(29,245,50)" stroke-opacity="1" stroke-width="8" fill="rgb(29,245,50)" fill-opacity="1"></path></g></g><g><g transform="matrix(1,0,0,1,106.359375,51.78125)"><path transform="matrix(0.017,0,0,-0.017,0,0)" d="M949 272L743 486L711 451L835 300L179 300L304 452L272 486L65 269L272 55L304 89L179 241L835 241L711 88L743 55Z" stroke="rgb(29,245,50)" stroke-opacity="1" stroke-width="8" fill="rgb(29,245,50)" fill-opacity="1"></path></g></g><g><g transform="matrix(1,0,0,1,128.6875,51.78125)"><path transform="matrix(0.017,0,0,-0.017,0,0)" d="M658 603L296 -1L406 -1L746 659L746 689L293 689L293 477L323 477L330 533C338 595 345 603 391 603ZM1019 204L990 77C986 60 984 42 984 26C984 4 993 -9 1008 -9C1031 -9 1072 17 1154 85L1147 106C1123 86 1094 59 1072 59C1063 59 1057 68 1057 82C1057 87 1057 90 1058 93L1150 472L1140 481L1107 463C1066 478 1049 482 1022 482C994 482 974 477 947 464C885 433 852 403 827 354C783 265 752 145 752 67C752 23 767 -11 786 -11C823 -11 903 41 1019 204ZM1067 414C1045 305 1026 253 992 201C935 117 874 59 842 59C830 59 824 72 824 99C824 163 852 280 887 360C911 415 934 433 982 433C1005 433 1023 429 1067 414ZM1426 722L1414 733C1362 707 1326 698 1254 691L1250 670L1298 670C1322 670 1332 663 1332 646C1332 639 1331 628 1330 622L1229 71C1228 68 1228 64 1228 61C1228 22 1276 -11 1331 -11C1368 -11 1419 8 1462 39C1558 107 1624 244 1624 376C1624 414 1615 453 1603 468C1596 477 1583 482 1568 482C1544 482 1514 474 1486 460C1435 433 1402 403 1340 324ZM1513 424C1539 424 1552 401 1552 352C1552 288 1531 202 1501 137C1468 68 1428 36 1374 36C1328 36 1303 59 1303 101C1303 135 1318 276 1399 361C1432 395 1484 424 1513 424Z" stroke="rgb(29,245,50)" stroke-opacity="1" stroke-width="8" fill="rgb(29,245,50)" fill-opacity="1"></path></g></g><g><g transform="matrix(1,0,0,1,164.421875,51.78125)"><path transform="matrix(0.017,0,0,-0.017,0,0)" d="M604 241L604 300L364 300L364 538L305 538L305 300L65 300L65 241L305 241L305 0L364 0L364 241Z" stroke="rgb(29,245,50)" stroke-opacity="1" stroke-width="8" fill="rgb(29,245,50)" fill-opacity="1"></path></g></g><g><g transform="matrix(1,0,0,1,179.171875,51.78125)"><path transform="matrix(0.017,0,0,-0.017,0,0)" d="M16 23L16 -3C203 -3 203 0 239 0C275 0 275 -3 468 -3L468 82C353 77 307 81 122 77L304 270C401 373 431 428 431 503C431 618 353 689 226 689C154 689 105 669 56 619L39 483L68 483L81 529C97 587 133 612 200 612C286 612 341 558 341 473C341 398 299 324 186 204Z" stroke="rgb(29,245,50)" stroke-opacity="1" stroke-width="8" fill="rgb(29,245,50)" fill-opacity="1"></path></g></g><g><g transform="matrix(1,0,0,1,196.984375,51.78125)"><path transform="matrix(0.017,0,0,-0.017,0,0)" d="M604 347L604 406L65 406L65 347ZM604 134L604 193L65 193L65 134Z" stroke="rgb(29,245,50)" stroke-opacity="1" stroke-width="8" fill="rgb(29,245,50)" fill-opacity="1"></path></g></g><g><g transform="matrix(1,0,0,1,213.4375,51.78125)"><path transform="matrix(0.017,0,0,-0.017,0,0)" d="M512 689C357 689 278 566 278 324C278 207 299 106 334 57C369 8 425 -20 487 -20C638 -20 714 110 714 366C714 585 649 689 512 689ZM494 654C591 654 630 556 630 316C630 103 592 15 500 15C403 15 362 116 362 360C362 571 399 654 494 654Z" stroke="rgb(29,245,50)" stroke-opacity="1" stroke-width="8" fill="rgb(29,245,50)" fill-opacity="1"></path></g></g><g><g transform="matrix(1,0,0,1,235.484375,51.78125)"><path transform="matrix(0.017,0,0,-0.017,0,0)" d="M949 272L743 486L711 451L835 300L179 300L304 452L272 486L65 269L272 55L304 89L179 241L835 241L711 88L743 55Z" stroke="rgb(29,245,50)" stroke-opacity="1" stroke-width="8" fill="rgb(29,245,50)" fill-opacity="1"></path></g></g><g><g transform="matrix(1,0,0,1,257.8125,51.78125)"><path transform="matrix(0.017,0,0,-0.017,0,0)" d="M271 204L242 77C238 60 236 42 236 26C236 4 245 -9 260 -9C283 -9 324 17 406 85L399 106C375 86 346 59 324 59C315 59 309 68 309 82C309 87 309 90 310 93L402 472L392 481L359 463C318 478 301 482 274 482C246 482 226 477 199 464C137 433 104 403 79 354C35 265 4 145 4 67C4 23 19 -11 38 -11C75 -11 155 41 271 204ZM319 414C297 305 278 253 244 201C187 117 126 59 94 59C82 59 76 72 76 99C76 163 104 280 139 360C163 415 186 433 234 433C257 433 275 429 319 414Z" stroke="rgb(29,245,50)" stroke-opacity="1" stroke-width="8" fill="rgb(29,245,50)" fill-opacity="1"></path></g></g><g><g transform="matrix(1,0,0,1,270.4375,51.78125)"><path transform="matrix(0.017,0,0,-0.017,0,0)" d="M604 347L604 406L65 406L65 347ZM604 134L604 193L65 193L65 134Z" stroke="rgb(29,245,50)" stroke-opacity="1" stroke-width="8" fill="rgb(29,245,50)" fill-opacity="1"></path></g></g><g><g transform="matrix(1,0,0,1,290.28125,51.78125)"><path transform="matrix(0.017,0,0,-0.017,0,0)" d="M555 243L555 299L51 299L51 243Z" stroke="rgb(29,245,50)" stroke-opacity="1" stroke-width="8" fill="rgb(29,245,50)" fill-opacity="1"></path></g></g><g><g><g><g><g transform="matrix(1,0,0,1,309.578125,39.390625)"><path transform="matrix(0.017,0,0,-0.017,0,0)" d="M16 23L16 -3C203 -3 203 0 239 0C275 0 275 -3 468 -3L468 82C353 77 307 81 122 77L304 270C401 373 431 428 431 503C431 618 353 689 226 689C154 689 105 669 56 619L39 483L68 483L81 529C97 587 133 612 200 612C286 612 341 558 341 473C341 398 299 324 186 204Z" stroke="rgb(29,245,50)" stroke-opacity="1" stroke-width="8" fill="rgb(29,245,50)" fill-opacity="1"></path></g></g></g></g><g><g><g><g transform="matrix(1,0,0,1,305.65625,65.171875)"><path transform="matrix(0.017,0,0,-0.017,0,0)" d="M409 603L47 -1L157 -1L497 659L497 689L44 689L44 477L74 477L81 533C89 595 96 603 142 603ZM734 722L722 733C670 707 634 698 562 691L558 670L606 670C630 670 640 663 640 646C640 639 639 628 638 622L537 71C536 68 536 64 536 61C536 22 584 -11 639 -11C676 -11 727 8 770 39C866 107 932 244 932 376C932 414 923 453 911 468C904 477 891 482 876 482C852 482 822 474 794 460C743 433 710 403 648 324ZM821 424C847 424 860 401 860 352C860 288 839 202 809 137C776 68 736 36 682 36C636 36 611 59 611 101C611 135 626 276 707 361C740 395 792 424 821 424Z" stroke="rgb(29,245,50)" stroke-opacity="1" stroke-width="8" fill="rgb(29,245,50)" fill-opacity="1"></path></g></g></g></g><line style="fill:none;stroke-width:1px;stroke:rgb(29, 245, 50);" x1="305.65625" y1="47.53125" x2="322" y2="47.53125"></line></g></g></g></svg>