<svg xmlns="http://www.w3.org/2000/svg" xmlns:xlink="http://www.w3.org/1999/xlink" width="292.625" height="65.171875" style="width:292.625px;height:65.171875px;font-family:Asana-Math, Asana;background:transparent;"><g><g><g><g transform="matrix(1,0,0,1,2,19)"><path transform="matrix(0.017,0,0,-0.017,0,0)" d="M746 705C747 702 747 698 747 695C747 651 669 645 632 645C525 645 413 671 306 671C282 671 258 670 235 666C151 652 24 571 24 469C24 423 106 337 147 337C151 337 154 338 158 339C117 368 95 420 95 477C95 580 166 621 267 621C300 621 332 619 366 616C292 566 264 486 265 391C247 391 229 391 210 394C203 378 194 363 186 348C206 355 229 356 252 356L267 356C269 332 270 300 270 265C270 132 248 -47 128 -47C118 -47 105 -44 96 -38C104 -59 127 -66 145 -66C171 -66 197 -63 220 -53C388 24 358 191 368 360L582 360C594 360 610 399 615 409L611 413C587 393 496 393 459 393L365 393C365 405 364 425 364 448C364 515 370 610 413 610C481 610 552 592 620 592C663 592 762 625 762 676C762 689 756 699 746 705Z" stroke="rgb(29,245,50)" stroke-opacity="1" stroke-width="8" fill="rgb(29,245,50)" fill-opacity="1"></path></g></g><g><g transform="matrix(1,0,0,1,15.171875,19)"><path transform="matrix(0.017,0,0,-0.017,0,0)" d="M146 266C146 526 243 632 301 700L282 726C225 675 60 542 60 266C60 159 85 58 133 -32C168 -99 200 -138 282 -215L301 -194C255 -137 146 -15 146 266Z" stroke="rgb(29,245,50)" stroke-opacity="1" stroke-width="8" fill="rgb(29,245,50)" fill-opacity="1"></path></g></g><g><g transform="matrix(1,0,0,1,20.828125,19)"><path transform="matrix(0.017,0,0,-0.017,0,0)" d="M168 345C127 326 110 315 88 294C50 256 30 211 30 159C30 56 113 -20 226 -20C356 -20 464 82 464 206C464 286 427 329 313 381C404 443 436 485 436 545C436 631 365 689 259 689C140 689 53 613 53 508C53 440 80 402 168 345ZM284 295C347 267 385 218 385 164C385 80 322 14 241 14C156 14 101 74 101 167C101 240 130 286 204 331ZM223 423C160 454 128 494 128 544C128 610 176 655 247 655C320 655 368 607 368 534C368 477 343 438 278 396ZM961 224C961 345 854 366 807 374C887 436 917 482 917 541C917 630 843 689 732 689C664 689 619 670 571 622L542 498L573 498L591 554C602 588 665 622 717 622C782 622 835 569 835 506C835 431 776 368 705 368C697 368 686 369 673 370L658 371L646 318L653 312C691 329 710 334 737 334C820 334 868 281 868 190C868 88 807 21 714 21C668 21 627 36 597 64C573 86 560 109 541 163L514 153C535 92 543 56 549 6C602 -12 646 -20 683 -20C806 -20 961 87 961 224Z" stroke="rgb(29,245,50)" stroke-opacity="1" stroke-width="8" fill="rgb(29,245,50)" fill-opacity="1"></path></g></g><g><g transform="matrix(1,0,0,1,37.796875,19)"><path transform="matrix(0.017,0,0,-0.017,0,0)" d="M204 123C177 114 159 108 106 93C99 17 74 -48 16 -144L30 -155L71 -136C152 -31 190 32 218 109Z" stroke="rgb(29,245,50)" stroke-opacity="1" stroke-width="8" fill="rgb(29,245,50)" fill-opacity="1"></path></g></g><g><g transform="matrix(1,0,0,1,45.421875,19)"><path transform="matrix(0.017,0,0,-0.017,0,0)" d="M418 -3L418 27L366 30C311 33 301 44 301 96L301 700L60 598L67 548L217 614L217 96C217 44 206 33 152 30L96 27L96 -3C250 0 250 0 261 0C292 0 402 -3 418 -3ZM762 689C607 689 528 566 528 324C528 207 549 106 584 57C619 8 675 -20 737 -20C888 -20 964 110 964 366C964 585 899 689 762 689ZM744 654C841 654 880 556 880 316C880 103 842 15 750 15C653 15 612 116 612 360C612 571 649 654 744 654ZM1416 -3L1416 27L1364 30C1309 33 1299 44 1299 96L1299 700L1058 598L1065 548L1215 614L1215 96C1215 44 1204 33 1150 30L1094 27L1094 -3C1248 0 1248 0 1259 0C1290 0 1400 -3 1416 -3Z" stroke="rgb(29,245,50)" stroke-opacity="1" stroke-width="8" fill="rgb(29,245,50)" fill-opacity="1"></path></g></g><g><g transform="matrix(1,0,0,1,70.875,19)"><path transform="matrix(0.017,0,0,-0.017,0,0)" d="M51 726L32 700C87 636 187 526 187 266C187 -10 83 -131 32 -194L51 -215C104 -165 273 -23 273 265C273 542 108 675 51 726Z" stroke="rgb(29,245,50)" stroke-opacity="1" stroke-width="8" fill="rgb(29,245,50)" fill-opacity="1"></path></g></g><g><g transform="matrix(1,0,0,1,76.53125,19)"><path transform="matrix(0.017,0,0,-0.017,0,0)" d="" stroke="rgb(29,245,50)" stroke-opacity="1" stroke-width="8" fill="rgb(29,245,50)" fill-opacity="1"></path></g></g><g><g transform="matrix(1,0,0,1,85.859375,19)"><path transform="matrix(0.017,0,0,-0.017,0,0)" d="M604 347L604 406L65 406L65 347ZM604 134L604 193L65 193L65 134Z" stroke="rgb(29,245,50)" stroke-opacity="1" stroke-width="8" fill="rgb(29,245,50)" fill-opacity="1"></path></g></g><g><g transform="matrix(1,0,0,1,102.3125,19)"><path transform="matrix(0.017,0,0,-0.017,0,0)" d="" stroke="rgb(29,245,50)" stroke-opacity="1" stroke-width="8" fill="rgb(29,245,50)" fill-opacity="1"></path></g></g><g><g transform="matrix(1,0,0,1,106.546875,19)"><path transform="matrix(0.017,0,0,-0.017,0,0)" d="M146 266C146 526 243 632 301 700L282 726C225 675 60 542 60 266C60 159 85 58 133 -32C168 -99 200 -138 282 -215L301 -194C255 -137 146 -15 146 266Z" stroke="rgb(29,245,50)" stroke-opacity="1" stroke-width="8" fill="rgb(29,245,50)" fill-opacity="1"></path></g></g><g><g transform="matrix(1,0,0,1,112.203125,19)"><path transform="matrix(0.017,0,0,-0.017,0,0)" d="M459 253C459 366 378 446 264 446C216 446 180 443 127 396L127 605L432 604L432 689L75 690L75 322L95 316C142 363 169 377 218 377C314 377 374 309 374 201C374 90 310 25 201 25C147 25 97 43 83 69L37 151L13 137C36 80 48 48 62 4C90 -11 130 -20 173 -20C301 -20 459 89 459 253ZM667 345C626 326 609 315 587 294C549 256 529 211 529 159C529 56 612 -20 725 -20C855 -20 963 82 963 206C963 286 926 329 812 381C903 443 935 485 935 545C935 631 864 689 758 689C639 689 552 613 552 508C552 440 579 402 667 345ZM783 295C846 267 884 218 884 164C884 80 821 14 740 14C655 14 600 74 600 167C600 240 629 286 703 331ZM722 423C659 454 627 494 627 544C627 610 675 655 746 655C819 655 867 607 867 534C867 477 842 438 777 396ZM1416 -3L1416 27L1364 30C1309 33 1299 44 1299 96L1299 700L1058 598L1065 548L1215 614L1215 96C1215 44 1204 33 1150 30L1094 27L1094 -3C1248 0 1248 0 1259 0C1290 0 1400 -3 1416 -3ZM1768 204L1739 77C1735 60 1733 42 1733 26C1733 4 1742 -9 1757 -9C1780 -9 1821 17 1903 85L1896 106C1872 86 1843 59 1821 59C1812 59 1806 68 1806 82C1806 87 1806 90 1807 93L1899 472L1889 481L1856 463C1815 478 1798 482 1771 482C1743 482 1723 477 1696 464C1634 433 1601 403 1576 354C1532 265 1501 145 1501 67C1501 23 1516 -11 1535 -11C1572 -11 1652 41 1768 204ZM1816 414C1794 305 1775 253 1741 201C1684 117 1623 59 1591 59C1579 59 1573 72 1573 99C1573 163 1601 280 1636 360C1660 415 1683 433 1731 433C1754 433 1772 429 1816 414Z" stroke="rgb(29,245,50)" stroke-opacity="1" stroke-width="8" fill="rgb(29,245,50)" fill-opacity="1"></path></g></g><g><g transform="matrix(1,0,0,1,148.578125,19)"><path transform="matrix(0.017,0,0,-0.017,0,0)" d="M555 243L555 299L51 299L51 243Z" stroke="rgb(29,245,50)" stroke-opacity="1" stroke-width="8" fill="rgb(29,245,50)" fill-opacity="1"></path></g></g><g><g transform="matrix(1,0,0,1,162.265625,19)"><path transform="matrix(0.017,0,0,-0.017,0,0)" d="M418 -3L418 27L366 30C311 33 301 44 301 96L301 700L60 598L67 548L217 614L217 96C217 44 206 33 152 30L96 27L96 -3C250 0 250 0 261 0C292 0 402 -3 418 -3ZM762 689C607 689 528 566 528 324C528 207 549 106 584 57C619 8 675 -20 737 -20C888 -20 964 110 964 366C964 585 899 689 762 689ZM744 654C841 654 880 556 880 316C880 103 842 15 750 15C653 15 612 116 612 360C612 571 649 654 744 654ZM1416 -3L1416 27L1364 30C1309 33 1299 44 1299 96L1299 700L1058 598L1065 548L1215 614L1215 96C1215 44 1204 33 1150 30L1094 27L1094 -3C1248 0 1248 0 1259 0C1290 0 1400 -3 1416 -3Z" stroke="rgb(29,245,50)" stroke-opacity="1" stroke-width="8" fill="rgb(29,245,50)" fill-opacity="1"></path></g></g><g><g transform="matrix(1,0,0,1,187.71875,19)"><path transform="matrix(0.017,0,0,-0.017,0,0)" d="M204 123C177 114 159 108 106 93C99 17 74 -48 16 -144L30 -155L71 -136C152 -31 190 32 218 109Z" stroke="rgb(29,245,50)" stroke-opacity="1" stroke-width="8" fill="rgb(29,245,50)" fill-opacity="1"></path></g></g><g><g transform="matrix(1,0,0,1,195.34375,19)"><path transform="matrix(0.017,0,0,-0.017,0,0)" d="M667 -3L667 27L615 30C560 33 550 44 550 96L550 700L309 598L316 548L466 614L466 96C466 44 455 33 401 30L345 27L345 -3C499 0 499 0 510 0C541 0 651 -3 667 -3ZM879 331C900 512 989 611 1169 665L1127 689C1031 657 990 637 939 593C836 506 780 384 780 247C780 82 860 -20 989 -20C1119 -20 1216 83 1216 219C1216 334 1147 409 1041 409C964 409 932 370 879 331ZM1003 349C1079 349 1130 283 1130 184C1130 80 1079 13 1002 13C917 13 871 86 871 220C871 255 875 274 886 291C908 325 955 349 1003 349ZM1378 331C1399 512 1488 611 1668 665L1626 689C1530 657 1489 637 1438 593C1335 506 1279 384 1279 247C1279 82 1359 -20 1488 -20C1618 -20 1715 83 1715 219C1715 334 1646 409 1540 409C1463 409 1431 370 1378 331ZM1502 349C1578 349 1629 283 1629 184C1629 80 1578 13 1501 13C1416 13 1370 86 1370 220C1370 255 1374 274 1385 291C1407 325 1454 349 1502 349Z" stroke="rgb(29,245,50)" stroke-opacity="1" stroke-width="8" fill="rgb(29,245,50)" fill-opacity="1"></path></g></g><g><g transform="matrix(1,0,0,1,228.421875,19)"><path transform="matrix(0.017,0,0,-0.017,0,0)" d="M604 241L604 300L364 300L364 538L305 538L305 300L65 300L65 241L305 241L305 0L364 0L364 241Z" stroke="rgb(29,245,50)" stroke-opacity="1" stroke-width="8" fill="rgb(29,245,50)" fill-opacity="1"></path></g></g><g><g transform="matrix(1,0,0,1,243.171875,19)"><path transform="matrix(0.017,0,0,-0.017,0,0)" d="M418 -3L418 27L366 30C311 33 301 44 301 96L301 700L60 598L67 548L217 614L217 96C217 44 206 33 152 30L96 27L96 -3C250 0 250 0 261 0C292 0 402 -3 418 -3ZM762 689C607 689 528 566 528 324C528 207 549 106 584 57C619 8 675 -20 737 -20C888 -20 964 110 964 366C964 585 899 689 762 689ZM744 654C841 654 880 556 880 316C880 103 842 15 750 15C653 15 612 116 612 360C612 571 649 654 744 654ZM1416 -3L1416 27L1364 30C1309 33 1299 44 1299 96L1299 700L1058 598L1065 548L1215 614L1215 96C1215 44 1204 33 1150 30L1094 27L1094 -3C1248 0 1248 0 1259 0C1290 0 1400 -3 1416 -3ZM1732 722L1720 733C1668 707 1632 698 1560 691L1556 670L1604 670C1628 670 1638 663 1638 646C1638 639 1637 628 1636 622L1535 71C1534 68 1534 64 1534 61C1534 22 1582 -11 1637 -11C1674 -11 1725 8 1768 39C1864 107 1930 244 1930 376C1930 414 1921 453 1909 468C1902 477 1889 482 1874 482C1850 482 1820 474 1792 460C1741 433 1708 403 1646 324ZM1819 424C1845 424 1858 401 1858 352C1858 288 1837 202 1807 137C1774 68 1734 36 1680 36C1634 36 1609 59 1609 101C1609 135 1624 276 1705 361C1738 395 1790 424 1819 424Z" stroke="rgb(29,245,50)" stroke-opacity="1" stroke-width="8" fill="rgb(29,245,50)" fill-opacity="1"></path></g></g><g><g transform="matrix(1,0,0,1,276.484375,19)"><path transform="matrix(0.017,0,0,-0.017,0,0)" d="M51 726L32 700C87 636 187 526 187 266C187 -10 83 -131 32 -194L51 -215C104 -165 273 -23 273 265C273 542 108 675 51 726Z" stroke="rgb(29,245,50)" stroke-opacity="1" stroke-width="8" fill="rgb(29,245,50)" fill-opacity="1"></path></g></g></g><g><g><g transform="matrix(1,0,0,1,2,39.390625)"><path transform="matrix(0.017,0,0,-0.017,0,0)" d="M746 705C747 702 747 698 747 695C747 651 669 645 632 645C525 645 413 671 306 671C282 671 258 670 235 666C151 652 24 571 24 469C24 423 106 337 147 337C151 337 154 338 158 339C117 368 95 420 95 477C95 580 166 621 267 621C300 621 332 619 366 616C292 566 264 486 265 391C247 391 229 391 210 394C203 378 194 363 186 348C206 355 229 356 252 356L267 356C269 332 270 300 270 265C270 132 248 -47 128 -47C118 -47 105 -44 96 -38C104 -59 127 -66 145 -66C171 -66 197 -63 220 -53C388 24 358 191 368 360L582 360C594 360 610 399 615 409L611 413C587 393 496 393 459 393L365 393C365 405 364 425 364 448C364 515 370 610 413 610C481 610 552 592 620 592C663 592 762 625 762 676C762 689 756 699 746 705Z" stroke="rgb(29,245,50)" stroke-opacity="1" stroke-width="8" fill="rgb(29,245,50)" fill-opacity="1"></path></g></g><g><g transform="matrix(1,0,0,1,15.171875,39.390625)"><path transform="matrix(0.017,0,0,-0.017,0,0)" d="M146 266C146 526 243 632 301 700L282 726C225 675 60 542 60 266C60 159 85 58 133 -32C168 -99 200 -138 282 -215L301 -194C255 -137 146 -15 146 266Z" stroke="rgb(29,245,50)" stroke-opacity="1" stroke-width="8" fill="rgb(29,245,50)" fill-opacity="1"></path></g></g><g><g transform="matrix(1,0,0,1,20.828125,39.390625)"><path transform="matrix(0.017,0,0,-0.017,0,0)" d="M418 -3L418 27L366 30C311 33 301 44 301 96L301 700L60 598L67 548L217 614L217 96C217 44 206 33 152 30L96 27L96 -3C250 0 250 0 261 0C292 0 402 -3 418 -3ZM762 689C607 689 528 566 528 324C528 207 549 106 584 57C619 8 675 -20 737 -20C888 -20 964 110 964 366C964 585 899 689 762 689ZM744 654C841 654 880 556 880 316C880 103 842 15 750 15C653 15 612 116 612 360C612 571 649 654 744 654ZM1460 224C1460 345 1353 366 1306 374C1386 436 1416 482 1416 541C1416 630 1342 689 1231 689C1163 689 1118 670 1070 622L1041 498L1072 498L1090 554C1101 588 1164 622 1216 622C1281 622 1334 569 1334 506C1334 431 1275 368 1204 368C1196 368 1185 369 1172 370L1157 371L1145 318L1152 312C1190 329 1209 334 1236 334C1319 334 1367 281 1367 190C1367 88 1306 21 1213 21C1167 21 1126 36 1096 64C1072 86 1059 109 1040 163L1013 153C1034 92 1042 56 1048 6C1101 -12 1145 -20 1182 -20C1305 -20 1460 87 1460 224Z" stroke="rgb(29,245,50)" stroke-opacity="1" stroke-width="8" fill="rgb(29,245,50)" fill-opacity="1"></path></g></g><g><g transform="matrix(1,0,0,1,46.28125,39.390625)"><path transform="matrix(0.017,0,0,-0.017,0,0)" d="M204 123C177 114 159 108 106 93C99 17 74 -48 16 -144L30 -155L71 -136C152 -31 190 32 218 109Z" stroke="rgb(29,245,50)" stroke-opacity="1" stroke-width="8" fill="rgb(29,245,50)" fill-opacity="1"></path></g></g><g><g transform="matrix(1,0,0,1,53.90625,39.390625)"><path transform="matrix(0.017,0,0,-0.017,0,0)" d="M418 -3L418 27L366 30C311 33 301 44 301 96L301 700L60 598L67 548L217 614L217 96C217 44 206 33 152 30L96 27L96 -3C250 0 250 0 261 0C292 0 402 -3 418 -3ZM917 -3L917 27L865 30C810 33 800 44 800 96L800 700L559 598L566 548L716 614L716 96C716 44 705 33 651 30L595 27L595 -3C749 0 749 0 760 0C791 0 901 -3 917 -3ZM1278 181L1278 106C1278 46 1267 32 1218 30L1156 27L1156 -3C1289 0 1289 0 1313 0C1337 0 1337 0 1470 -3L1470 27L1422 30C1373 33 1362 46 1362 106L1362 181C1421 181 1442 180 1470 177L1470 248L1362 245L1363 697L1283 667L1000 204L1000 181ZM1278 245L1063 245L1278 597Z" stroke="rgb(29,245,50)" stroke-opacity="1" stroke-width="8" fill="rgb(29,245,50)" fill-opacity="1"></path></g></g><g><g transform="matrix(1,0,0,1,79.359375,39.390625)"><path transform="matrix(0.017,0,0,-0.017,0,0)" d="M51 726L32 700C87 636 187 526 187 266C187 -10 83 -131 32 -194L51 -215C104 -165 273 -23 273 265C273 542 108 675 51 726Z" stroke="rgb(29,245,50)" stroke-opacity="1" stroke-width="8" fill="rgb(29,245,50)" fill-opacity="1"></path></g></g><g><g transform="matrix(1,0,0,1,85.015625,39.390625)"><path transform="matrix(0.017,0,0,-0.017,0,0)" d="" stroke="rgb(29,245,50)" stroke-opacity="1" stroke-width="8" fill="rgb(29,245,50)" fill-opacity="1"></path></g></g><g><g transform="matrix(1,0,0,1,94.34375,39.390625)"><path transform="matrix(0.017,0,0,-0.017,0,0)" d="M604 347L604 406L65 406L65 347ZM604 134L604 193L65 193L65 134Z" stroke="rgb(29,245,50)" stroke-opacity="1" stroke-width="8" fill="rgb(29,245,50)" fill-opacity="1"></path></g></g><g><g transform="matrix(1,0,0,1,110.796875,39.390625)"><path transform="matrix(0.017,0,0,-0.017,0,0)" d="" stroke="rgb(29,245,50)" stroke-opacity="1" stroke-width="8" fill="rgb(29,245,50)" fill-opacity="1"></path></g></g><g><g transform="matrix(1,0,0,1,115.03125,39.390625)"><path transform="matrix(0.017,0,0,-0.017,0,0)" d="M146 266C146 526 243 632 301 700L282 726C225 675 60 542 60 266C60 159 85 58 133 -32C168 -99 200 -138 282 -215L301 -194C255 -137 146 -15 146 266Z" stroke="rgb(29,245,50)" stroke-opacity="1" stroke-width="8" fill="rgb(29,245,50)" fill-opacity="1"></path></g></g><g><g transform="matrix(1,0,0,1,120.6875,39.390625)"><path transform="matrix(0.017,0,0,-0.017,0,0)" d="M409 603L47 -1L157 -1L497 659L497 689L44 689L44 477L74 477L81 533C89 595 96 603 142 603ZM515 23L515 -3C702 -3 702 0 738 0C774 0 774 -3 967 -3L967 82C852 77 806 81 621 77L803 270C900 373 930 428 930 503C930 618 852 689 725 689C653 689 604 669 555 619L538 483L567 483L580 529C596 587 632 612 699 612C785 612 840 558 840 473C840 398 798 324 685 204ZM1416 -3L1416 27L1364 30C1309 33 1299 44 1299 96L1299 700L1058 598L1065 548L1215 614L1215 96C1215 44 1204 33 1150 30L1094 27L1094 -3C1248 0 1248 0 1259 0C1290 0 1400 -3 1416 -3ZM1768 204L1739 77C1735 60 1733 42 1733 26C1733 4 1742 -9 1757 -9C1780 -9 1821 17 1903 85L1896 106C1872 86 1843 59 1821 59C1812 59 1806 68 1806 82C1806 87 1806 90 1807 93L1899 472L1889 481L1856 463C1815 478 1798 482 1771 482C1743 482 1723 477 1696 464C1634 433 1601 403 1576 354C1532 265 1501 145 1501 67C1501 23 1516 -11 1535 -11C1572 -11 1652 41 1768 204ZM1816 414C1794 305 1775 253 1741 201C1684 117 1623 59 1591 59C1579 59 1573 72 1573 99C1573 163 1601 280 1636 360C1660 415 1683 433 1731 433C1754 433 1772 429 1816 414Z" stroke="rgb(29,245,50)" stroke-opacity="1" stroke-width="8" fill="rgb(29,245,50)" fill-opacity="1"></path></g></g><g><g transform="matrix(1,0,0,1,157.0625,39.390625)"><path transform="matrix(0.017,0,0,-0.017,0,0)" d="M555 243L555 299L51 299L51 243Z" stroke="rgb(29,245,50)" stroke-opacity="1" stroke-width="8" fill="rgb(29,245,50)" fill-opacity="1"></path></g></g><g><g transform="matrix(1,0,0,1,170.75,39.390625)"><path transform="matrix(0.017,0,0,-0.017,0,0)" d="M418 -3L418 27L366 30C311 33 301 44 301 96L301 700L60 598L67 548L217 614L217 96C217 44 206 33 152 30L96 27L96 -3C250 0 250 0 261 0C292 0 402 -3 418 -3ZM917 -3L917 27L865 30C810 33 800 44 800 96L800 700L559 598L566 548L716 614L716 96C716 44 705 33 651 30L595 27L595 -3C749 0 749 0 760 0C791 0 901 -3 917 -3ZM1278 181L1278 106C1278 46 1267 32 1218 30L1156 27L1156 -3C1289 0 1289 0 1313 0C1337 0 1337 0 1470 -3L1470 27L1422 30C1373 33 1362 46 1362 106L1362 181C1421 181 1442 180 1470 177L1470 248L1362 245L1363 697L1283 667L1000 204L1000 181ZM1278 245L1063 245L1278 597Z" stroke="rgb(29,245,50)" stroke-opacity="1" stroke-width="8" fill="rgb(29,245,50)" fill-opacity="1"></path></g></g><g><g transform="matrix(1,0,0,1,196.203125,39.390625)"><path transform="matrix(0.017,0,0,-0.017,0,0)" d="M204 123C177 114 159 108 106 93C99 17 74 -48 16 -144L30 -155L71 -136C152 -31 190 32 218 109Z" stroke="rgb(29,245,50)" stroke-opacity="1" stroke-width="8" fill="rgb(29,245,50)" fill-opacity="1"></path></g></g><g><g transform="matrix(1,0,0,1,203.828125,39.390625)"><path transform="matrix(0.017,0,0,-0.017,0,0)" d="M265 23L265 -3C452 -3 452 0 488 0C524 0 524 -3 717 -3L717 82C602 77 556 81 371 77L553 270C650 373 680 428 680 503C680 618 602 689 475 689C403 689 354 669 305 619L288 483L317 483L330 529C346 587 382 612 449 612C535 612 590 558 590 473C590 398 548 324 435 204ZM1011 689C856 689 777 566 777 324C777 207 798 106 833 57C868 8 924 -20 986 -20C1137 -20 1213 110 1213 366C1213 585 1148 689 1011 689ZM993 654C1090 654 1129 556 1129 316C1129 103 1091 15 999 15C902 15 861 116 861 360C861 571 898 654 993 654ZM1378 331C1399 512 1488 611 1668 665L1626 689C1530 657 1489 637 1438 593C1335 506 1279 384 1279 247C1279 82 1359 -20 1488 -20C1618 -20 1715 83 1715 219C1715 334 1646 409 1540 409C1463 409 1431 370 1378 331ZM1502 349C1578 349 1629 283 1629 184C1629 80 1578 13 1501 13C1416 13 1370 86 1370 220C1370 255 1374 274 1385 291C1407 325 1454 349 1502 349Z" stroke="rgb(29,245,50)" stroke-opacity="1" stroke-width="8" fill="rgb(29,245,50)" fill-opacity="1"></path></g></g><g><g transform="matrix(1,0,0,1,236.90625,39.390625)"><path transform="matrix(0.017,0,0,-0.017,0,0)" d="M604 241L604 300L364 300L364 538L305 538L305 300L65 300L65 241L305 241L305 0L364 0L364 241Z" stroke="rgb(29,245,50)" stroke-opacity="1" stroke-width="8" fill="rgb(29,245,50)" fill-opacity="1"></path></g></g><g><g transform="matrix(1,0,0,1,251.65625,39.390625)"><path transform="matrix(0.017,0,0,-0.017,0,0)" d="M418 -3L418 27L366 30C311 33 301 44 301 96L301 700L60 598L67 548L217 614L217 96C217 44 206 33 152 30L96 27L96 -3C250 0 250 0 261 0C292 0 402 -3 418 -3ZM917 -3L917 27L865 30C810 33 800 44 800 96L800 700L559 598L566 548L716 614L716 96C716 44 705 33 651 30L595 27L595 -3C749 0 749 0 760 0C791 0 901 -3 917 -3ZM1278 181L1278 106C1278 46 1267 32 1218 30L1156 27L1156 -3C1289 0 1289 0 1313 0C1337 0 1337 0 1470 -3L1470 27L1422 30C1373 33 1362 46 1362 106L1362 181C1421 181 1442 180 1470 177L1470 248L1362 245L1363 697L1283 667L1000 204L1000 181ZM1278 245L1063 245L1278 597ZM1732 722L1720 733C1668 707 1632 698 1560 691L1556 670L1604 670C1628 670 1638 663 1638 646C1638 639 1637 628 1636 622L1535 71C1534 68 1534 64 1534 61C1534 22 1582 -11 1637 -11C1674 -11 1725 8 1768 39C1864 107 1930 244 1930 376C1930 414 1921 453 1909 468C1902 477 1889 482 1874 482C1850 482 1820 474 1792 460C1741 433 1708 403 1646 324ZM1819 424C1845 424 1858 401 1858 352C1858 288 1837 202 1807 137C1774 68 1734 36 1680 36C1634 36 1609 59 1609 101C1609 135 1624 276 1705 361C1738 395 1790 424 1819 424Z" stroke="rgb(29,245,50)" stroke-opacity="1" stroke-width="8" fill="rgb(29,245,50)" fill-opacity="1"></path></g></g><g><g transform="matrix(1,0,0,1,284.96875,39.390625)"><path transform="matrix(0.017,0,0,-0.017,0,0)" d="M51 726L32 700C87 636 187 526 187 266C187 -10 83 -131 32 -194L51 -215C104 -165 273 -23 273 265C273 542 108 675 51 726Z" stroke="rgb(29,245,50)" stroke-opacity="1" stroke-width="8" fill="rgb(29,245,50)" fill-opacity="1"></path></g></g></g><g><g><g transform="matrix(1,0,0,1,2,59.78125)"><path transform="matrix(0.017,0,0,-0.017,0,0)" d="M746 705C747 702 747 698 747 695C747 651 669 645 632 645C525 645 413 671 306 671C282 671 258 670 235 666C151 652 24 571 24 469C24 423 106 337 147 337C151 337 154 338 158 339C117 368 95 420 95 477C95 580 166 621 267 621C300 621 332 619 366 616C292 566 264 486 265 391C247 391 229 391 210 394C203 378 194 363 186 348C206 355 229 356 252 356L267 356C269 332 270 300 270 265C270 132 248 -47 128 -47C118 -47 105 -44 96 -38C104 -59 127 -66 145 -66C171 -66 197 -63 220 -53C388 24 358 191 368 360L582 360C594 360 610 399 615 409L611 413C587 393 496 393 459 393L365 393C365 405 364 425 364 448C364 515 370 610 413 610C481 610 552 592 620 592C663 592 762 625 762 676C762 689 756 699 746 705Z" stroke="rgb(29,245,50)" stroke-opacity="1" stroke-width="8" fill="rgb(29,245,50)" fill-opacity="1"></path></g></g><g><g transform="matrix(1,0,0,1,15.171875,59.78125)"><path transform="matrix(0.017,0,0,-0.017,0,0)" d="M146 266C146 526 243 632 301 700L282 726C225 675 60 542 60 266C60 159 85 58 133 -32C168 -99 200 -138 282 -215L301 -194C255 -137 146 -15 146 266Z" stroke="rgb(29,245,50)" stroke-opacity="1" stroke-width="8" fill="rgb(29,245,50)" fill-opacity="1"></path></g></g><g><g transform="matrix(1,0,0,1,20.828125,59.78125)"><path transform="matrix(0.017,0,0,-0.017,0,0)" d="M418 -3L418 27L366 30C311 33 301 44 301 96L301 700L60 598L67 548L217 614L217 96C217 44 206 33 152 30L96 27L96 -3C250 0 250 0 261 0C292 0 402 -3 418 -3ZM917 -3L917 27L865 30C810 33 800 44 800 96L800 700L559 598L566 548L716 614L716 96C716 44 705 33 651 30L595 27L595 -3C749 0 749 0 760 0C791 0 901 -3 917 -3ZM1416 -3L1416 27L1364 30C1309 33 1299 44 1299 96L1299 700L1058 598L1065 548L1215 614L1215 96C1215 44 1204 33 1150 30L1094 27L1094 -3C1248 0 1248 0 1259 0C1290 0 1400 -3 1416 -3Z" stroke="rgb(29,245,50)" stroke-opacity="1" stroke-width="8" fill="rgb(29,245,50)" fill-opacity="1"></path></g></g><g><g transform="matrix(1,0,0,1,46.28125,59.78125)"><path transform="matrix(0.017,0,0,-0.017,0,0)" d="M204 123C177 114 159 108 106 93C99 17 74 -48 16 -144L30 -155L71 -136C152 -31 190 32 218 109Z" stroke="rgb(29,245,50)" stroke-opacity="1" stroke-width="8" fill="rgb(29,245,50)" fill-opacity="1"></path></g></g><g><g transform="matrix(1,0,0,1,53.90625,59.78125)"><path transform="matrix(0.017,0,0,-0.017,0,0)" d="M418 -3L418 27L366 30C311 33 301 44 301 96L301 700L60 598L67 548L217 614L217 96C217 44 206 33 152 30L96 27L96 -3C250 0 250 0 261 0C292 0 402 -3 418 -3ZM917 -3L917 27L865 30C810 33 800 44 800 96L800 700L559 598L566 548L716 614L716 96C716 44 705 33 651 30L595 27L595 -3C749 0 749 0 760 0C791 0 901 -3 917 -3ZM1457 253C1457 366 1376 446 1262 446C1214 446 1178 443 1125 396L1125 605L1430 604L1430 689L1073 690L1073 322L1093 316C1140 363 1167 377 1216 377C1312 377 1372 309 1372 201C1372 90 1308 25 1199 25C1145 25 1095 43 1081 69L1035 151L1011 137C1034 80 1046 48 1060 4C1088 -11 1128 -20 1171 -20C1299 -20 1457 89 1457 253Z" stroke="rgb(29,245,50)" stroke-opacity="1" stroke-width="8" fill="rgb(29,245,50)" fill-opacity="1"></path></g></g><g><g transform="matrix(1,0,0,1,79.359375,59.78125)"><path transform="matrix(0.017,0,0,-0.017,0,0)" d="M51 726L32 700C87 636 187 526 187 266C187 -10 83 -131 32 -194L51 -215C104 -165 273 -23 273 265C273 542 108 675 51 726Z" stroke="rgb(29,245,50)" stroke-opacity="1" stroke-width="8" fill="rgb(29,245,50)" fill-opacity="1"></path></g></g><g><g transform="matrix(1,0,0,1,85.015625,59.78125)"><path transform="matrix(0.017,0,0,-0.017,0,0)" d="" stroke="rgb(29,245,50)" stroke-opacity="1" stroke-width="8" fill="rgb(29,245,50)" fill-opacity="1"></path></g></g><g><g transform="matrix(1,0,0,1,94.34375,59.78125)"><path transform="matrix(0.017,0,0,-0.017,0,0)" d="M604 347L604 406L65 406L65 347ZM604 134L604 193L65 193L65 134Z" stroke="rgb(29,245,50)" stroke-opacity="1" stroke-width="8" fill="rgb(29,245,50)" fill-opacity="1"></path></g></g><g><g transform="matrix(1,0,0,1,110.796875,59.78125)"><path transform="matrix(0.017,0,0,-0.017,0,0)" d="" stroke="rgb(29,245,50)" stroke-opacity="1" stroke-width="8" fill="rgb(29,245,50)" fill-opacity="1"></path></g></g><g><g transform="matrix(1,0,0,1,115.03125,59.78125)"><path transform="matrix(0.017,0,0,-0.017,0,0)" d="M146 266C146 526 243 632 301 700L282 726C225 675 60 542 60 266C60 159 85 58 133 -32C168 -99 200 -138 282 -215L301 -194C255 -137 146 -15 146 266Z" stroke="rgb(29,245,50)" stroke-opacity="1" stroke-width="8" fill="rgb(29,245,50)" fill-opacity="1"></path></g></g><g><g transform="matrix(1,0,0,1,120.6875,59.78125)"><path transform="matrix(0.017,0,0,-0.017,0,0)" d="M409 603L47 -1L157 -1L497 659L497 689L44 689L44 477L74 477L81 533C89 595 96 603 142 603ZM908 603L546 -1L656 -1L996 659L996 689L543 689L543 477L573 477L580 533C588 595 595 603 641 603ZM1407 603L1045 -1L1155 -1L1495 659L1495 689L1042 689L1042 477L1072 477L1079 533C1087 595 1094 603 1140 603ZM1768 204L1739 77C1735 60 1733 42 1733 26C1733 4 1742 -9 1757 -9C1780 -9 1821 17 1903 85L1896 106C1872 86 1843 59 1821 59C1812 59 1806 68 1806 82C1806 87 1806 90 1807 93L1899 472L1889 481L1856 463C1815 478 1798 482 1771 482C1743 482 1723 477 1696 464C1634 433 1601 403 1576 354C1532 265 1501 145 1501 67C1501 23 1516 -11 1535 -11C1572 -11 1652 41 1768 204ZM1816 414C1794 305 1775 253 1741 201C1684 117 1623 59 1591 59C1579 59 1573 72 1573 99C1573 163 1601 280 1636 360C1660 415 1683 433 1731 433C1754 433 1772 429 1816 414Z" stroke="rgb(29,245,50)" stroke-opacity="1" stroke-width="8" fill="rgb(29,245,50)" fill-opacity="1"></path></g></g><g><g transform="matrix(1,0,0,1,157.0625,59.78125)"><path transform="matrix(0.017,0,0,-0.017,0,0)" d="M555 243L555 299L51 299L51 243Z" stroke="rgb(29,245,50)" stroke-opacity="1" stroke-width="8" fill="rgb(29,245,50)" fill-opacity="1"></path></g></g><g><g transform="matrix(1,0,0,1,170.75,59.78125)"><path transform="matrix(0.017,0,0,-0.017,0,0)" d="M418 -3L418 27L366 30C311 33 301 44 301 96L301 700L60 598L67 548L217 614L217 96C217 44 206 33 152 30L96 27L96 -3C250 0 250 0 261 0C292 0 402 -3 418 -3ZM917 -3L917 27L865 30C810 33 800 44 800 96L800 700L559 598L566 548L716 614L716 96C716 44 705 33 651 30L595 27L595 -3C749 0 749 0 760 0C791 0 901 -3 917 -3ZM1457 253C1457 366 1376 446 1262 446C1214 446 1178 443 1125 396L1125 605L1430 604L1430 689L1073 690L1073 322L1093 316C1140 363 1167 377 1216 377C1312 377 1372 309 1372 201C1372 90 1308 25 1199 25C1145 25 1095 43 1081 69L1035 151L1011 137C1034 80 1046 48 1060 4C1088 -11 1128 -20 1171 -20C1299 -20 1457 89 1457 253Z" stroke="rgb(29,245,50)" stroke-opacity="1" stroke-width="8" fill="rgb(29,245,50)" fill-opacity="1"></path></g></g><g><g transform="matrix(1,0,0,1,196.203125,59.78125)"><path transform="matrix(0.017,0,0,-0.017,0,0)" d="M204 123C177 114 159 108 106 93C99 17 74 -48 16 -144L30 -155L71 -136C152 -31 190 32 218 109Z" stroke="rgb(29,245,50)" stroke-opacity="1" stroke-width="8" fill="rgb(29,245,50)" fill-opacity="1"></path></g></g><g><g transform="matrix(1,0,0,1,203.828125,59.78125)"><path transform="matrix(0.017,0,0,-0.017,0,0)" d="M265 23L265 -3C452 -3 452 0 488 0C524 0 524 -3 717 -3L717 82C602 77 556 81 371 77L553 270C650 373 680 428 680 503C680 618 602 689 475 689C403 689 354 669 305 619L288 483L317 483L330 529C346 587 382 612 449 612C535 612 590 558 590 473C590 398 548 324 435 204ZM764 23L764 -3C951 -3 951 0 987 0C1023 0 1023 -3 1216 -3L1216 82C1101 77 1055 81 870 77L1052 270C1149 373 1179 428 1179 503C1179 618 1101 689 974 689C902 689 853 669 804 619L787 483L816 483L829 529C845 587 881 612 948 612C1034 612 1089 558 1089 473C1089 398 1047 324 934 204ZM1263 23L1263 -3C1450 -3 1450 0 1486 0C1522 0 1522 -3 1715 -3L1715 82C1600 77 1554 81 1369 77L1551 270C1648 373 1678 428 1678 503C1678 618 1600 689 1473 689C1401 689 1352 669 1303 619L1286 483L1315 483L1328 529C1344 587 1380 612 1447 612C1533 612 1588 558 1588 473C1588 398 1546 324 1433 204Z" stroke="rgb(29,245,50)" stroke-opacity="1" stroke-width="8" fill="rgb(29,245,50)" fill-opacity="1"></path></g></g><g><g transform="matrix(1,0,0,1,236.90625,59.78125)"><path transform="matrix(0.017,0,0,-0.017,0,0)" d="M604 241L604 300L364 300L364 538L305 538L305 300L65 300L65 241L305 241L305 0L364 0L364 241Z" stroke="rgb(29,245,50)" stroke-opacity="1" stroke-width="8" fill="rgb(29,245,50)" fill-opacity="1"></path></g></g><g><g transform="matrix(1,0,0,1,251.65625,59.78125)"><path transform="matrix(0.017,0,0,-0.017,0,0)" d="M418 -3L418 27L366 30C311 33 301 44 301 96L301 700L60 598L67 548L217 614L217 96C217 44 206 33 152 30L96 27L96 -3C250 0 250 0 261 0C292 0 402 -3 418 -3ZM917 -3L917 27L865 30C810 33 800 44 800 96L800 700L559 598L566 548L716 614L716 96C716 44 705 33 651 30L595 27L595 -3C749 0 749 0 760 0C791 0 901 -3 917 -3ZM1457 253C1457 366 1376 446 1262 446C1214 446 1178 443 1125 396L1125 605L1430 604L1430 689L1073 690L1073 322L1093 316C1140 363 1167 377 1216 377C1312 377 1372 309 1372 201C1372 90 1308 25 1199 25C1145 25 1095 43 1081 69L1035 151L1011 137C1034 80 1046 48 1060 4C1088 -11 1128 -20 1171 -20C1299 -20 1457 89 1457 253ZM1732 722L1720 733C1668 707 1632 698 1560 691L1556 670L1604 670C1628 670 1638 663 1638 646C1638 639 1637 628 1636 622L1535 71C1534 68 1534 64 1534 61C1534 22 1582 -11 1637 -11C1674 -11 1725 8 1768 39C1864 107 1930 244 1930 376C1930 414 1921 453 1909 468C1902 477 1889 482 1874 482C1850 482 1820 474 1792 460C1741 433 1708 403 1646 324ZM1819 424C1845 424 1858 401 1858 352C1858 288 1837 202 1807 137C1774 68 1734 36 1680 36C1634 36 1609 59 1609 101C1609 135 1624 276 1705 361C1738 395 1790 424 1819 424Z" stroke="rgb(29,245,50)" stroke-opacity="1" stroke-width="8" fill="rgb(29,245,50)" fill-opacity="1"></path></g></g><g><g transform="matrix(1,0,0,1,284.96875,59.78125)"><path transform="matrix(0.017,0,0,-0.017,0,0)" d="M51 726L32 700C87 636 187 526 187 266C187 -10 83 -131 32 -194L51 -215C104 -165 273 -23 273 265C273 542 108 675 51 726Z" stroke="rgb(29,245,50)" stroke-opacity="1" stroke-width="8" fill="rgb(29,245,50)" fill-opacity="1"></path></g></g></g></g></svg>